<?xml version="1.0" standalone="no"?>
<!DOCTYPE svg PUBLIC "-//W3C//DTD SVG 20010904//EN"
 "http://www.w3.org/TR/2001/REC-SVG-20010904/DTD/svg10.dtd">
<svg version="1.0" xmlns="http://www.w3.org/2000/svg"
 width="1080.000000pt" height="1080.000000pt" viewBox="0 0 1080.000000 1080.000000"
 preserveAspectRatio="xMidYMid meet">

<g transform="translate(0.000000,1080.000000) scale(0.100000,-0.100000)"
fill="#000000" stroke="none">
<path d="M0 5400 l0 -5400 5395 0 5395 0 0 5400 0 5400 -5395 0 -5395 0 0
-5400z m5651 4490 c331 -26 685 -97 974 -197 442 -153 860 -386 1200 -667 153
-126 405 -374 499 -491 157 -195 194 -242 237 -305 94 -137 190 -301 259 -445
40 -82 81 -166 90 -185 10 -19 32 -73 48 -120 l30 -86 -24 -2 c-27 -2 -47 32
-91 147 -13 36 -63 140 -111 231 -179 344 -381 623 -652 903 -206 214 -535
473 -778 614 -362 210 -747 362 -1134 447 -243 54 -385 73 -657 88 -313 17
-587 -11 -960 -97 -317 -73 -546 -157 -880 -322 -510 -253 -923 -592 -1315
-1078 -152 -187 -360 -549 -476 -825 -77 -185 -82 -194 -74 -153 3 17 7 48 9
70 9 79 14 101 44 176 85 213 256 512 426 742 135 183 405 472 587 628 110 94
323 250 458 336 153 96 511 274 682 339 548 208 1085 292 1609 252z m-66 -390
l0 -195 -24 -3 c-13 -2 -27 0 -31 5 -8 8 6 356 15 381 3 8 13 12 22 10 16 -3
18 -20 18 -198z m-358 59 c6 -57 12 -139 12 -181 1 -76 0 -78 -23 -78 l-23 0
-8 175 c-4 95 -4 179 0 185 18 28 31 -4 42 -101z m-223 79 c11 -51 44 -343 40
-350 -8 -13 -54 -9 -54 5 0 6 -7 71 -15 142 -22 197 -20 220 17 224 4 1 10 -9
12 -21z m926 -17 c0 -10 -29 -262 -35 -308 -5 -37 -9 -43 -31 -43 -14 0 -24 6
-24 15 0 54 43 341 52 346 12 8 38 1 38 -10z m-1221 -158 c18 -76 36 -156 41
-177 10 -47 7 -56 -24 -56 -19 0 -25 7 -29 33 -3 17 -19 97 -36 176 -16 80
-28 148 -25 153 3 4 13 8 23 8 16 0 24 -22 50 -137z m1536 117 c5 -8 -48 -262
-71 -342 -6 -19 -39 -24 -49 -8 -6 10 69 310 86 342 11 20 25 23 34 8z m-1921
-113 c13 -29 43 -110 67 -180 38 -110 42 -129 29 -137 -28 -18 -36 -10 -62 68
-14 42 -41 120 -60 172 -19 52 -32 103 -30 113 7 33 33 17 56 -36z m2276 8 c0
-12 -108 -346 -114 -352 -1 -1 -12 0 -24 4 -29 7 -26 26 35 186 68 181 71 187
88 181 8 -4 15 -12 15 -19z m-2638 -168 c20 -34 62 -110 92 -169 53 -101 55
-108 37 -118 -11 -5 -22 -10 -25 -10 -9 0 -176 326 -176 344 0 37 36 14 72
-47z m2948 28 c0 -9 -20 -58 -44 -109 -24 -52 -56 -122 -72 -157 -15 -35 -29
-65 -30 -67 -1 -2 -12 2 -24 8 -15 8 -19 17 -14 32 10 33 106 230 131 271 24
38 53 50 53 22z m-3286 -197 c79 -111 166 -254 163 -268 -3 -21 -43 -25 -51
-5 -3 9 -46 81 -96 160 -49 79 -90 148 -90 154 0 29 40 6 74 -41z m3643 26 c2
-5 -11 -33 -29 -62 -18 -29 -62 -99 -98 -157 -36 -57 -70 -104 -76 -105 -6 0
-17 6 -23 14 -14 17 9 57 131 229 63 89 86 108 95 81z m-1432 -178 c247 -40
518 -122 744 -225 177 -82 262 -129 416 -232 330 -220 571 -451 795 -759 125
-172 268 -438 360 -669 80 -202 155 -517 180 -761 29 -278 -4 -627 -65 -704
-30 -37 -49 -26 -42 23 3 20 13 108 23 196 18 174 15 472 -6 595 -38 222 -146
617 -186 678 -15 22 -38 26 -40 6 -1 -18 -27 -64 -36 -64 -5 0 -7 -4 -4 -9 5
-8 -46 -88 -68 -104 -7 -5 -3 -6 8 -3 14 5 17 3 11 -11 -4 -10 -11 -29 -15
-43 -4 -14 -19 -50 -33 -80 -13 -30 -28 -73 -31 -95 -4 -22 -12 -47 -17 -55
-21 -31 18 173 47 245 6 16 1 14 -29 -10 -20 -16 -48 -39 -62 -50 -15 -11 -38
-37 -51 -58 -24 -36 -79 -71 -97 -60 -4 2 -15 -1 -23 -8 -8 -6 -17 -9 -21 -6
-3 4 -15 1 -27 -5 -19 -10 -20 -10 -7 5 12 15 11 17 -3 17 -10 0 -15 4 -12 9
4 5 -3 7 -14 4 -19 -5 -20 -6 -3 -20 17 -14 17 -14 1 -9 -10 3 -18 2 -19 -2 0
-4 -3 -24 -5 -46 -3 -21 0 -44 7 -52 15 -18 -2 -39 -54 -65 -28 -15 -66 -22
-135 -25 -108 -5 -130 -17 -149 -79 -15 -49 -115 -205 -132 -205 -8 0 -33 -20
-57 -45 -23 -25 -47 -45 -53 -45 -7 0 -23 -12 -36 -26 -24 -26 -25 -26 -58
-10 -73 34 -80 35 -128 10 -26 -13 -50 -20 -53 -16 -13 13 -86 30 -107 25 -11
-3 -27 1 -37 9 -31 27 -49 34 -29 11 23 -27 22 -33 -9 -33 -27 0 -65 -34 -127
-117 -18 -23 -35 -43 -40 -43 -8 0 56 131 86 175 l21 30 -21 -18 c-12 -10 -33
-42 -46 -70 -14 -29 -50 -77 -81 -107 -31 -30 -56 -60 -56 -66 0 -22 -43 -65
-88 -88 -26 -13 -56 -33 -66 -45 -11 -12 -23 -21 -27 -21 -10 0 7 48 24 71 7
8 -1 1 -16 -15 -21 -23 -26 -26 -22 -11 l7 20 -17 -20 c-9 -11 -19 -31 -22
-45 -3 -14 -12 -37 -19 -51 -10 -19 -10 -29 -2 -37 8 -8 -1 -27 -35 -71 -48
-61 -59 -88 -31 -77 9 3 20 6 25 6 6 0 7 5 4 10 -4 7 2 9 19 4 17 -4 26 -2 26
6 0 6 4 8 10 5 12 -8 85 69 105 111 18 39 97 113 167 157 63 40 149 80 157 72
11 -11 -159 -145 -184 -145 -5 0 4 12 20 26 l30 26 -33 -22 c-18 -12 -30 -25
-27 -30 3 -5 -8 -18 -23 -29 -16 -11 -42 -37 -57 -56 l-27 -37 28 16 c16 9 52
32 79 52 l50 37 -45 -48 c-25 -26 -65 -67 -90 -92 l-45 -45 50 8 c28 4 62 8
77 8 40 1 133 96 168 171 34 76 81 117 164 145 92 30 107 23 45 -23 -27 -20
-47 -32 -43 -25 23 39 -43 -36 -77 -86 -43 -68 -53 -65 -14 3 27 47 26 63 -1
40 -26 -22 -136 -171 -130 -176 3 -3 1 -14 -5 -24 -9 -19 -2 -25 25 -20 5 1
13 -3 17 -10 8 -13 20 -9 59 18 l25 17 -19 -24 c-10 -14 11 5 47 42 36 37 83
94 104 127 25 38 61 77 103 108 47 34 71 61 87 95 13 26 41 61 62 79 22 17 47
49 55 70 11 26 26 43 44 50 15 6 35 15 45 21 28 14 30 4 8 -33 -12 -19 -21
-38 -21 -44 0 -16 88 111 139 202 28 48 57 97 65 108 14 18 14 16 2 -20 -34
-100 -129 -265 -153 -265 -6 0 -19 -10 -27 -22 -25 -35 -46 -32 -40 5 3 19
-16 -12 -47 -75 -29 -60 -55 -108 -58 -108 -4 0 -6 17 -4 38 l4 37 -20 -48
c-11 -27 -38 -72 -60 -100 -22 -29 -45 -66 -51 -82 -13 -31 -14 -30 -25 19 -6
28 -7 27 -60 -51 -29 -44 -80 -109 -112 -143 l-58 -63 44 22 c44 23 44 23 38
2 -3 -12 -2 -21 3 -21 13 0 168 143 211 194 22 28 46 64 54 80 7 17 20 40 29
51 17 20 17 19 10 -5 -11 -43 -84 -177 -107 -196 l-21 -19 19 30 c13 22 2 14
-44 -28 -34 -31 -94 -83 -132 -113 -38 -31 -69 -58 -69 -60 0 -7 38 2 52 13 7
6 32 20 56 31 32 15 42 17 42 7 0 -20 20 -29 33 -16 18 18 30 13 24 -10 -5
-18 -2 -20 31 -18 20 2 43 7 50 12 6 5 12 6 12 1 0 -5 32 23 70 61 74 74 90
76 39 7 -17 -24 -29 -46 -25 -49 3 -3 1 -12 -5 -20 -14 -16 -2 -17 40 -2 17 6
31 15 31 20 0 5 7 9 15 9 9 0 37 19 63 43 26 24 67 58 92 77 47 36 74 62 125
120 17 19 40 42 50 50 13 9 11 4 -6 -15 -14 -17 -36 -48 -50 -70 -14 -22 -33
-52 -42 -66 l-17 -25 68 22 c70 22 164 78 279 165 36 28 67 48 69 46 2 -2 -17
-26 -43 -53 -27 -28 -67 -71 -91 -97 -43 -46 -62 -58 -62 -36 0 8 -5 8 -15 -1
-8 -7 -15 -17 -15 -22 0 -16 -26 -37 -54 -44 -28 -7 -34 4 -13 25 17 19 -28
-4 -68 -34 -16 -12 -40 -25 -52 -29 -11 -4 -27 -14 -35 -23 -12 -15 -11 -15
10 -4 12 6 22 8 22 4 0 -4 4 -2 9 6 7 11 13 11 32 0 21 -11 23 -11 11 3 -10
13 -10 17 4 22 8 3 23 6 32 5 14 0 13 -2 -3 -10 -16 -7 -13 -8 13 -4 17 2 32
0 32 -5 0 -6 5 -10 11 -10 5 0 7 4 4 10 -3 6 1 7 9 4 10 -4 16 -1 16 7 0 7 3
10 6 6 3 -3 17 -1 31 4 23 9 25 8 18 -13 -3 -13 -11 -43 -16 -68 -5 -24 -14
-49 -19 -54 -6 -6 -10 -19 -11 -31 0 -11 -9 4 -18 33 -10 29 -21 55 -24 58
-11 11 -24 -6 -30 -36 -7 -32 -24 -40 -33 -15 -4 8 -10 15 -15 15 -5 0 -9 -7
-9 -15 0 -8 -4 -15 -10 -15 -5 0 -10 -8 -10 -19 0 -10 -6 -33 -14 -51 -10 -26
-14 -29 -20 -15 -3 10 -12 15 -21 11 -11 -4 -14 2 -11 23 4 35 -31 73 -45 50
-5 -8 -9 -22 -9 -31 0 -31 -20 -30 -27 2 l-6 32 -13 -36 c-8 -20 -20 -52 -28
-72 -8 -21 -16 -32 -20 -25 -11 18 -26 13 -26 -9 0 -43 -25 -11 -45 58 -8 29
-22 20 -42 -29 -18 -45 -20 -46 -42 -20 -18 20 -35 22 -60 7 -12 -8 -13 -1 -8
39 8 52 -1 53 -19 2 -6 -18 -17 -32 -25 -33 -8 0 -24 -2 -36 -2 -12 -1 -24
-11 -28 -22 -3 -11 -10 -20 -14 -20 -8 0 -41 71 -45 95 -4 26 -16 29 -16 4 0
-14 -6 -34 -14 -44 -12 -16 -16 -17 -30 -6 -9 7 -16 20 -16 27 0 8 -5 14 -11
14 -6 0 -9 -9 -6 -20 3 -11 1 -20 -5 -20 -6 0 -8 -6 -5 -14 3 -8 -4 -27 -16
-43 -12 -15 -20 -28 -18 -28 3 0 0 -9 -6 -19 -6 -12 -17 -17 -26 -13 -10 4
-20 -1 -26 -10 -8 -14 -11 -15 -23 -2 -8 8 -19 23 -25 34 -10 17 -12 16 -18
-19 -12 -61 -37 -59 -79 7 -10 15 -23 27 -28 27 -16 0 -39 -29 -41 -51 -1 -11
-9 -25 -19 -30 -15 -8 -20 -5 -28 17 -11 29 -25 24 -32 -11 -4 -26 -48 -31
-88 -11 -17 8 -32 10 -36 5 -10 -17 -33 -9 -40 14 l-7 22 -10 -22 c-6 -13 -15
-23 -21 -24 -28 -3 -62 4 -68 15 -5 7 -8 5 -8 -6 0 -20 -25 -24 -35 -8 -4 7
-11 7 -18 2 -22 -17 -65 -23 -70 -9 -4 8 -8 9 -14 1 -12 -16 -53 -12 -53 6 -1
13 -2 13 -13 0 -7 -8 -19 -17 -27 -19 -28 -8 -125 -3 -152 8 -16 6 -28 7 -28
1 0 -5 -28 -9 -62 -10 -35 0 -76 -1 -93 -1 -16 0 -59 1 -95 4 -42 3 -74 0 -89
-8 -25 -13 -104 -3 -127 16 -8 6 -14 5 -17 -4 -4 -10 -30 -13 -109 -12 -98 1
-133 8 -125 23 2 4 -4 14 -13 23 -17 16 -19 15 -29 -7 -6 -13 -19 -25 -28 -25
-32 -2 -58 2 -67 12 -13 12 -46 12 -46 -1 0 -16 -51 -12 -70 5 -15 14 -19 13
-39 -4 -21 -18 -53 -18 -77 0 -5 5 -19 6 -31 3 -11 -3 -27 1 -36 11 -9 9 -21
13 -27 10 -11 -7 -34 12 -42 35 -3 10 -10 4 -23 -18 -11 -18 -22 -32 -26 -32
-3 0 -23 12 -44 26 -30 20 -40 23 -47 12 -7 -10 -11 -9 -23 6 -8 11 -15 29
-16 40 0 12 -8 39 -18 61 l-17 39 -14 -62 c-12 -57 -15 -62 -34 -56 -12 4 -23
11 -25 16 -1 5 -9 1 -17 -9 -12 -16 -15 -16 -24 -3 -5 8 -15 32 -21 54 -6 21
-15 50 -20 64 l-10 25 -18 -34 c-10 -19 -21 -46 -25 -61 -3 -16 -11 -28 -17
-28 -15 0 -59 50 -59 68 0 12 -2 12 -17 1 -13 -11 -17 -11 -20 -1 -7 18 -23 4
-24 -21 -1 -18 -3 -16 -10 8 -5 17 -11 39 -13 50 -3 11 -5 21 -7 23 -1 2 -4
10 -8 27 -3 15 -44 -20 -56 -48 l-13 -32 -12 63 c-7 34 -15 62 -19 62 -14 0
-27 -17 -36 -45 -7 -19 -17 -30 -30 -30 -16 0 -19 9 -23 78 l-4 78 29 -7 c15
-4 42 -14 58 -23 29 -15 125 -23 125 -10 0 11 -89 89 -217 192 -68 54 -123
103 -123 109 0 5 28 -13 63 -41 34 -28 99 -79 145 -114 46 -34 113 -85 150
-114 89 -70 111 -81 122 -63 8 13 11 12 23 -4 11 -14 16 -16 22 -6 4 7 3 15
-2 19 -5 3 -18 21 -28 39 -11 17 -23 32 -28 32 -4 0 -6 4 -3 9 3 5 -1 12 -10
15 -9 4 -14 9 -11 13 4 3 36 -22 73 -57 74 -69 138 -101 202 -103 23 0 42 -5
42 -10 0 -5 7 -4 15 3 11 10 18 9 30 -4 30 -29 36 -12 8 20 -10 10 -25 28 -33
38 -14 18 -14 19 5 9 11 -6 31 -23 44 -37 13 -14 38 -28 55 -32 17 -3 48 -15
70 -26 21 -11 53 -21 70 -24 l31 -3 -35 29 c-22 19 -28 28 -15 24 11 -4 25
-11 31 -15 6 -5 30 -16 54 -24 55 -19 43 -4 -42 55 -35 24 -79 61 -98 84 l-35
41 35 -28 c63 -49 118 -80 130 -72 4 3 10 -2 14 -10 3 -8 12 -15 21 -15 8 0
15 -5 15 -11 0 -6 7 -8 16 -5 8 3 12 2 9 -4 -4 -6 5 -9 19 -8 43 4 30 22 -46
66 -80 46 -108 66 -108 75 0 4 6 4 14 1 35 -14 21 18 -27 59 -29 25 -67 71
-87 106 -57 102 -113 161 -87 92 5 -15 7 -36 3 -46 -6 -15 -10 -12 -28 21 -25
47 -97 139 -108 139 -15 0 -27 18 -65 94 -21 41 -50 96 -66 123 -16 26 -24 48
-19 48 19 0 91 -74 105 -107 8 -18 20 -33 26 -33 19 0 59 -41 59 -60 0 -25 63
-94 119 -130 37 -23 59 -48 86 -96 48 -85 133 -176 179 -190 21 -7 33 -7 29
-1 -4 6 5 7 23 2 49 -13 69 -11 68 7 -1 15 2 14 29 -2 17 -11 35 -16 40 -13
13 8 96 7 104 -1 3 -3 12 -6 19 -6 6 0 -18 29 -55 65 -44 43 -60 65 -49 65 10
0 37 -17 60 -37 82 -71 82 -67 -2 24 -64 70 -102 102 -152 128 -37 19 -76 48
-87 63 -26 35 -26 16 -1 -48 11 -28 20 -58 20 -68 -1 -15 -3 -14 -16 3 -8 11
-29 45 -46 77 -16 31 -41 67 -55 80 l-26 23 13 -25 c10 -20 3 -16 -33 17 -29
27 -59 44 -84 49 -43 7 -79 24 -53 23 8 0 60 -5 115 -12 98 -12 100 -13 115
-43 11 -24 32 -40 85 -64 120 -55 162 -88 246 -191 94 -116 109 -128 154 -122
18 2 36 0 40 -6 3 -6 11 -11 16 -11 5 0 -8 24 -31 53 -22 30 -48 78 -59 108
-32 92 -43 110 -57 98 -9 -8 -10 -18 -3 -36 14 -38 5 -38 -29 1 -16 19 -48 46
-71 61 -22 15 -55 50 -73 79 -30 49 -56 78 -105 119 -21 19 -22 19 -16 -5 3
-12 -13 6 -34 42 -22 35 -46 66 -53 68 -7 3 -5 -6 5 -22 10 -15 16 -28 14 -31
-6 -6 -108 59 -109 69 0 6 10 20 21 32 l22 23 -37 -19 c-28 -14 -44 -16 -68
-9 -27 7 -40 3 -90 -27 -32 -20 -65 -33 -73 -30 -7 2 -16 0 -18 -7 -3 -8 -10
-5 -20 7 -13 17 -18 18 -45 7 -31 -13 -67 -9 -59 6 3 8 -65 79 -81 85 -26 9
-140 126 -163 168 -13 22 -26 40 -30 40 -4 0 -9 10 -13 23 -3 12 -21 41 -41
64 l-35 42 -88 -1 c-93 -1 -136 13 -199 66 l-30 25 23 -67 c31 -91 104 -328
104 -337 0 -19 -35 25 -52 65 -26 59 -128 355 -128 370 0 9 5 9 17 -1 9 -8
-36 38 -101 101 -112 109 -166 152 -166 131 0 -5 7 -46 16 -91 20 -106 14
-135 -10 -45 -10 39 -34 103 -52 144 -19 41 -34 79 -34 85 0 22 -106 130 -121
124 -8 -3 -31 -54 -52 -114 -75 -223 -132 -475 -148 -649 -12 -129 -7 -451 10
-570 21 -150 21 -153 1 -148 -11 3 -16 11 -13 19 3 9 -1 14 -12 14 -11 0 -15
-5 -11 -16 3 -8 2 -12 -4 -9 -14 9 -26 64 -46 204 -23 166 -15 490 16 666 113
647 395 1191 853 1647 269 267 566 467 937 631 208 91 478 166 725 201 61 9
124 17 140 20 76 11 594 -3 690 -18z m-2508 -108 c37 -46 86 -105 107 -133 22
-27 43 -51 48 -53 4 -2 8 -10 8 -17 0 -16 -39 -31 -49 -18 -17 19 -179 230
-194 252 -12 18 -14 28 -5 38 6 7 12 13 13 13 2 0 34 -37 72 -82z m4256 67 c5
-11 -71 -117 -103 -145 -13 -11 -108 -139 -112 -150 -3 -10 -9 -10 -26 1 -12
8 -21 17 -19 22 10 32 231 287 248 287 4 0 9 -7 12 -15z m-4486 -357 c131
-132 131 -132 110 -150 -11 -10 -24 -15 -27 -11 -10 12 -191 214 -217 243 -26
28 -30 50 -10 50 8 0 72 -59 144 -132z m4763 103 c0 -16 -20 -39 -166 -194
-64 -69 -73 -75 -90 -63 -21 16 -23 13 139 188 85 92 117 111 117 69z m-5115
-269 c61 -54 230 -206 234 -209 6 -4 -20 -33 -29 -33 -9 0 -78 62 -198 176
-46 43 -72 75 -68 82 11 19 29 14 61 -16z m5380 1 c0 -16 -41 -59 -115 -123
-35 -30 -83 -72 -105 -92 -41 -37 -43 -37 -59 -19 -17 18 -12 23 120 135 127
107 159 127 159 99z m-5597 -295 c114 -77 232 -171 232 -184 0 -27 -30 -27
-58 -2 -15 14 -65 54 -112 88 -105 79 -141 111 -134 122 9 14 24 9 72 -24z
m5817 10 c0 -15 -255 -218 -273 -218 -5 0 -15 6 -21 13 -14 18 -9 22 150 137
68 49 129 88 134 86 6 -1 10 -10 10 -18z m-6028 -314 c172 -94 262 -154 256
-170 -3 -8 -10 -14 -15 -14 -9 0 -187 106 -274 163 -18 12 -30 27 -27 34 7 17
4 17 60 -13z m6226 12 c7 -19 -6 -29 -156 -120 -118 -72 -166 -89 -155 -53 6
18 273 185 299 187 4 0 9 -6 12 -14z m-6400 -331 c19 -8 79 -35 134 -61 54
-25 108 -50 121 -55 19 -7 21 -12 12 -29 -11 -21 -9 -22 -280 113 -14 7 -26
20 -28 30 -4 21 -3 21 41 2z m6555 -20 c-1 -1 -68 -35 -148 -75 -134 -66 -145
-70 -157 -54 -7 10 -10 21 -5 26 4 4 54 27 112 52 58 24 125 53 150 65 39 17
45 18 48 5 2 -9 2 -17 0 -19z m275 -111 c3 -3 3 -13 0 -21 -5 -12 -7 -12 -14
-1 -15 23 -4 40 14 22z m-6896 -221 c29 -11 50 -23 45 -28 -4 -4 -2 -5 4 -2 6
4 45 -6 88 -20 55 -20 76 -32 76 -44 0 -15 -17 -11 -124 26 -173 61 -199 73
-191 86 8 13 29 9 102 -18z m6743 13 c0 -8 -7 -16 -15 -20 -12 -4 -13 -2 -2
14 14 24 17 25 17 6z m-53 -22 c4 -13 -196 -94 -237 -97 -15 -1 -25 4 -27 14
-3 11 25 25 114 56 122 42 144 46 150 27z m-5689 -381 c23 -58 88 -343 78
-343 -8 0 -106 339 -106 368 0 20 16 6 28 -25z m4666 -30 c-8 -27 -32 -113
-53 -193 -43 -157 -59 -206 -60 -178 -2 51 106 418 123 418 3 0 -2 -21 -10
-47z m-132 -90 c-10 -21 -38 -99 -61 -173 -28 -86 -72 -193 -124 -297 -87
-175 -116 -216 -43 -62 25 52 67 173 94 269 28 96 55 187 61 202 11 29 81 111
88 104 2 -2 -4 -21 -15 -43z m-57 -13 c-9 -15 -25 -12 -25 6 0 8 -4 12 -10 9
-5 -3 -10 -2 -10 4 0 5 8 11 18 13 19 4 37 -17 27 -32z m-4340 -130 c15 -47
43 -114 62 -150 20 -38 26 -55 14 -40 -11 14 -27 32 -36 41 -34 36 -86 191
-84 252 0 21 1 21 9 2 5 -11 21 -58 35 -105z m4435 97 c0 -32 -29 -114 -74
-209 -37 -78 -71 -122 -40 -51 36 81 83 210 89 246 8 41 25 51 25 14z m-3856
-435 c9 -2 16 -5 16 -8 0 -2 9 -36 19 -74 11 -39 18 -70 16 -70 -3 0 -18 26
-34 59 -17 32 -36 61 -44 64 -17 6 -124 218 -133 262 -3 17 27 -27 69 -100 41
-71 82 -131 91 -133z m-381 -119 c25 -32 62 -76 82 -98 l37 -40 -23 40 c-60
106 -80 145 -75 145 3 0 15 -19 27 -42 30 -58 94 -153 137 -200 63 -69 29 -49
-69 42 -92 85 -173 188 -218 277 -36 71 -23 72 18 1 22 -37 59 -93 84 -125z
m3755 124 c-11 -32 -23 -56 -25 -54 -2 3 6 30 18 61 11 32 23 56 25 54 2 -2
-6 -30 -18 -61z m346 21 c-47 -90 -199 -270 -298 -350 -44 -36 -41 -32 23 34
40 42 71 80 67 86 -6 11 18 35 26 26 6 -6 139 159 170 212 26 44 36 38 12 -8z
m-3854 -61 c0 -23 -18 9 -24 43 l-7 35 16 -34 c8 -18 15 -38 15 -44z m625 11
c5 4 5 2 2 -5 -4 -6 7 -22 25 -37 18 -14 29 -26 25 -26 -24 0 -97 54 -97 72 0
5 8 4 19 -1 10 -6 22 -7 26 -3z m-857 -33 c-3 -3 -9 2 -12 12 -6 14 -5 15 5 6
7 -7 10 -15 7 -18z m3181 1 l23 -13 -29 -1 c-17 0 -58 -12 -93 -26 -77 -31
-78 -32 -54 -5 48 54 106 71 153 45z m372 -152 c-5 -16 -10 -21 -10 -12 -1 18
10 51 15 45 2 -1 -1 -16 -5 -33z m-2856 -4 c8 -13 -5 -13 -25 0 -13 8 -13 10
2 10 9 0 20 -4 23 -10z m-91 -207 c42 -62 76 -115 76 -119 0 -32 -115 128
-146 201 -21 52 -20 50 70 -82z m4061 7 c-3 -5 0 -10 7 -10 7 0 0 -12 -15 -26
-19 -16 -36 -23 -48 -19 -10 4 -19 2 -19 -3 0 -13 -47 -62 -59 -62 -5 0 -11 8
-13 18 -4 19 74 82 103 82 9 0 22 7 29 15 14 17 24 20 15 5z m-331 -48 c-11
-9 -31 -24 -44 -33 -27 -18 -19 -44 11 -36 11 3 19 0 19 -6 0 -7 7 -3 15 7 19
25 19 15 1 -29 -8 -19 -21 -35 -29 -35 -7 0 -23 -13 -35 -30 -13 -16 -26 -30
-30 -30 -5 0 -16 15 -25 33 -10 20 -16 26 -16 15 -1 -10 -5 -18 -10 -18 -5 0
-12 -12 -15 -26 -8 -29 -15 -28 -21 4 -2 11 -9 31 -16 43 -10 20 -12 20 -21 6
-5 -9 -10 -32 -12 -52 -1 -19 -10 -43 -19 -53 -9 -10 -17 -29 -17 -41 0 -12
-4 -19 -10 -16 -5 3 -10 15 -10 26 0 10 -4 19 -9 19 -11 0 -17 18 -26 69 -3
19 -9 39 -12 44 -4 6 0 8 10 4 9 -3 19 -2 22 3 4 6 15 10 26 10 11 0 17 5 14
10 -3 6 -1 10 4 10 6 0 11 -7 11 -15 0 -22 18 -18 25 5 3 11 11 20 16 20 16 0
24 4 43 22 10 9 22 16 25 13 4 -2 36 14 71 35 68 40 99 51 64 22z m81 -72 c11
-18 -6 -80 -23 -80 -8 0 -12 3 -9 7 4 3 3 11 -2 17 -4 6 -11 22 -14 36 -5 22
-3 26 18 28 13 1 27 -3 30 -8z m-5640 -30 c-3 -5 -10 -10 -16 -10 -5 0 -9 5
-9 10 0 6 7 10 16 10 8 0 12 -4 9 -10z m1012 -49 c9 -12 12 -13 13 -2 0 11 5
10 25 -3 31 -20 59 -20 79 0 15 14 16 14 13 -4 -2 -11 -8 -26 -15 -34 -9 -11
-9 -17 0 -26 9 -9 7 -12 -11 -12 -18 0 -21 -4 -16 -20 9 -29 -11 -51 -38 -41
-12 5 -22 13 -22 18 0 14 -39 83 -47 83 -4 0 -10 -5 -14 -11 -4 -8 -9 -7 -15
2 -13 21 -11 29 8 29 15 0 15 1 0 18 -10 10 -17 22 -17 26 0 12 44 -6 57 -23z
m-914 -18 c-7 -2 -19 -2 -25 0 -7 3 -2 5 12 5 14 0 19 -2 13 -5z m817 -13 c0
-13 -5 -18 -15 -14 -16 7 -19 17 -8 27 12 13 23 7 23 -13z m-704 -9 c43 -19
114 -77 114 -92 0 -5 -26 8 -57 29 -32 21 -80 48 -108 60 -45 19 -47 21 -20
21 17 1 48 -8 71 -18z m192 -159 c23 -19 41 -36 40 -38 -2 -1 -39 15 -83 37
-76 38 -77 40 -39 38 27 -2 52 -13 82 -37z m5740 -11 c-25 -10 -59 -27 -75
-38 -28 -20 -73 -37 -125 -48 -21 -4 -28 -11 -28 -30 0 -21 -6 -25 -47 -31
-106 -15 -120 -20 -126 -44 -4 -14 -14 -20 -34 -20 l-28 1 28 24 c24 21 111
55 142 55 6 0 22 12 36 26 13 14 40 32 59 41 19 8 48 22 64 31 54 28 121 51
151 51 27 0 26 -2 -17 -18z m-5573 -31 c32 -28 56 -40 76 -40 39 0 63 -13 124
-67 44 -40 53 -44 85 -39 25 4 44 0 64 -14 21 -13 35 -16 47 -9 19 10 49 2 49
-12 0 -5 11 -9 24 -9 13 0 29 -7 36 -15 11 -13 8 -15 -13 -15 -15 0 -42 8 -62
17 -26 12 -38 14 -43 6 -5 -8 -19 -6 -46 8 -22 10 -57 19 -78 19 -28 0 -45 7
-61 24 -32 35 -124 86 -155 87 -30 0 -77 17 -52 18 22 1 -1 19 -30 23 -14 2
-24 9 -23 15 2 8 -4 10 -14 6 -12 -5 -15 -2 -10 10 4 11 2 14 -7 11 -8 -3 -17
-1 -21 5 -4 7 7 11 29 11 26 0 46 -10 81 -40z m6040 -37 c-16 -8 -49 -34 -72
-56 -24 -22 -45 -38 -48 -35 -11 10 104 108 127 108 21 -1 21 -2 -7 -17z
m-345 -3 c-8 -6 -24 -15 -35 -21 -16 -8 -15 -6 4 10 13 12 28 21 35 21 6 0 4
-5 -4 -10z m-6593 -6 c-3 -3 -12 -4 -19 -1 -8 3 -5 6 6 6 11 1 17 -2 13 -5z
m104 -41 c21 -14 39 -30 39 -35 0 -5 -3 -8 -7 -6 -49 24 -63 33 -63 40 0 5
-15 16 -32 24 -31 14 -32 15 -5 9 16 -3 46 -17 68 -32z m796 -19 c-3 -3 -12
-4 -19 -1 -8 3 -5 6 6 6 11 1 17 -2 13 -5z m5033 -17 c-51 -10 -65 -19 -83
-55 -8 -17 -27 -29 -56 -38 -25 -7 -48 -11 -52 -8 -4 2 -9 0 -11 -5 -1 -5 -19
-12 -38 -16 l-35 -7 38 26 c21 14 52 26 69 26 24 0 41 10 74 44 30 32 52 46
76 48 54 5 67 -5 18 -15z m-4985 -5 c-3 -3 -11 0 -18 7 -9 10 -8 11 6 5 10 -3
15 -9 12 -12z m5805 -8 c-19 -8 -59 -40 -88 -72 -29 -31 -49 -48 -43 -37 13
28 90 105 115 115 12 5 28 9 36 9 8 0 -1 -6 -20 -15z m-5260 -104 c37 -28 21
-30 -30 -4 -38 20 -41 23 -20 23 14 1 36 -8 50 -19z m4115 1 c-6 -5 -23 -12
-40 -15 l-30 -6 30 14 c35 18 54 20 40 7z m1440 -44 c-75 -41 -109 -61 -115
-67 -3 -3 -18 -16 -34 -30 l-30 -25 24 34 c35 50 147 116 205 120 6 0 -17 -14
-50 -32z m-6526 -14 c14 -11 35 -36 46 -56 11 -20 27 -38 35 -41 10 -2 8 -4
-5 -5 -14 -1 -27 11 -40 35 -23 43 -51 63 -113 81 l-47 13 49 -4 c26 -2 60
-13 75 -23z m5391 8 c175 -6 201 -8 115 -11 -60 -1 -119 -4 -130 -5 -11 -1
-247 -3 -525 -5 -278 -2 -467 -6 -420 -9 63 -5 12 -9 -200 -16 -157 -5 -313
-8 -348 -7 -69 3 -103 -8 -62 -19 l25 -7 -27 -1 c-16 -1 -28 -5 -28 -11 0 -5
-12 -13 -27 -17 -27 -6 -26 -7 17 -19 42 -11 43 -12 13 -13 -34 -1 -57 -21
-24 -21 56 0 69 -29 14 -31 -28 -1 -31 -3 -13 -6 14 -3 29 -9 34 -14 6 -5 -61
-10 -170 -11 l-179 -2 153 -3 c119 -3 159 -7 178 -19 15 -11 41 -15 76 -13
106 5 319 -1 314 -9 -3 -5 -83 -9 -178 -10 -194 -2 -531 -13 -536 -17 -2 -1
113 -5 255 -9 367 -9 648 -18 651 -20 1 -2 -178 -6 -398 -10 -220 -3 -410 -11
-422 -16 -14 -5 239 -6 642 -3 l665 6 0 -27 c0 -27 0 -27 -17 -6 -17 20 -21
21 -335 15 -175 -4 -408 -13 -518 -21 -110 -8 -229 -14 -265 -15 -73 0 -112
-11 -91 -23 27 -17 252 -27 636 -28 220 -1 429 2 465 5 65 7 65 7 27 -7 -29
-12 -131 -18 -449 -26 -227 -6 -414 -13 -417 -16 -3 -3 0 -13 5 -22 10 -15 41
-18 219 -27 297 -14 280 -47 -24 -48 -106 0 -113 -1 -95 -16 17 -14 67 -17
365 -20 395 -4 631 -17 352 -20 -164 -1 -177 -4 -155 -37 4 -7 74 -13 187 -18
161 -6 183 -4 205 11 l24 17 -21 -29 c-29 -43 -65 -115 -56 -115 5 0 20 21 35
48 15 26 39 61 53 77 l26 30 -20 -42 c-12 -23 -25 -44 -31 -48 -5 -3 -10 -11
-10 -16 0 -22 22 6 61 77 23 41 44 73 46 70 3 -3 -2 -19 -11 -37 -30 -60 0
-47 41 17 11 17 11 17 6 -3 -8 -32 11 -29 25 5 12 27 12 27 7 -7 l-5 -34 21
19 c12 10 24 27 28 36 4 11 11 14 19 9 7 -4 10 -15 6 -24 -3 -9 -10 -15 -15
-12 -4 3 -13 -5 -19 -17 -11 -22 -10 -22 4 -4 10 12 16 15 16 7 0 -24 28 8 35
40 4 16 11 29 16 29 9 0 8 -8 -9 -60 -2 -8 3 -5 12 8 10 12 22 22 28 22 6 0
17 8 25 18 13 16 14 15 9 -8 -3 -14 -3 -19 0 -11 5 10 8 10 14 1 5 -8 19 9 40
49 36 67 54 78 20 12 -26 -51 -19 -53 16 -3 l26 37 -5 -30 -5 -30 35 40 c19
22 30 30 24 18 -21 -41 -11 -38 34 11 25 27 48 46 52 42 3 -3 -3 -16 -14 -29
-34 -37 -39 -51 -15 -38 12 6 35 31 52 56 37 54 51 60 21 9 -12 -19 -21 -37
-21 -39 0 -10 61 33 116 81 97 83 103 80 17 -7 -103 -105 -104 -106 -69 -83
29 18 29 18 17 -1 -6 -11 -19 -31 -28 -45 -16 -22 -16 -23 -1 -12 9 7 30 17
48 22 27 8 30 7 20 -5 -7 -8 -18 -15 -26 -15 -15 0 -29 -19 -20 -27 3 -3 31
16 63 43 31 27 54 43 49 36 -4 -7 -10 -25 -12 -40 l-5 -27 33 30 33 30 -29
-32 c-15 -17 -34 -29 -40 -27 -6 2 -36 -16 -65 -41 -61 -52 -88 -68 -101 -60
-5 3 -12 0 -15 -6 -4 -5 -13 -8 -20 -5 -8 3 -29 -15 -50 -40 -38 -47 -59 -54
-31 -12 25 38 6 42 -31 6 -18 -17 -33 -26 -33 -19 0 11 -3 11 -15 1 -8 -7 -15
-9 -15 -5 0 5 -9 0 -20 -10 -19 -17 -20 -17 -20 1 0 14 -6 11 -30 -16 -29 -35
-39 -35 -20 1 16 30 -1 23 -31 -13 -24 -28 -27 -30 -22 -10 8 34 -3 27 -32
-20 -23 -39 -25 -40 -19 -13 4 17 11 34 15 39 5 6 9 14 9 20 0 5 -14 -11 -31
-35 -45 -62 -45 -63 -44 -23 l2 36 -29 -31 c-16 -17 -33 -29 -38 -26 -5 3 -17
-6 -28 -20 -29 -37 -34 -31 -11 13 l21 37 -36 -40 c-20 -22 -36 -43 -36 -47 0
-3 -9 -4 -19 -1 -17 4 -18 9 -10 30 13 35 5 39 -19 9 -23 -30 -34 -34 -25 -8
4 12 -2 10 -23 -9 -16 -15 -35 -24 -41 -22 -7 3 -16 -3 -19 -12 -5 -13 -8 -14
-15 -3 -7 10 -9 10 -9 1 0 -7 -5 -13 -12 -13 -6 0 -20 -7 -30 -17 -17 -15 -18
-15 -18 1 0 14 -7 12 -39 -13 -37 -30 -39 -30 -34 -9 4 19 -2 15 -31 -17 -35
-38 -36 -39 -30 -12 9 38 -1 34 -31 -15 -23 -39 -25 -40 -19 -13 l6 30 -27
-28 c-15 -16 -30 -26 -33 -23 -10 11 52 88 83 105 17 9 44 26 60 37 17 12 49
31 71 42 36 18 84 73 84 96 0 3 -16 -1 -36 -9 -20 -8 -58 -15 -85 -15 -48 0
-49 -1 -49 -29 0 -17 -4 -33 -10 -36 -5 -3 -10 3 -10 14 0 29 -18 26 -26 -4
-5 -21 -9 -23 -21 -13 -12 10 -17 9 -24 -5 -14 -24 -29 -21 -30 6 -1 20 -2 20
-12 -5 -14 -36 -27 -36 -27 0 -1 26 -1 26 -21 -10 -23 -44 -32 -49 -23 -13 8
33 -2 32 -20 -2 l-15 -28 -1 30 c-1 30 -1 29 -25 -15 -19 -35 -24 -40 -25 -22
0 28 -17 29 -26 0 -6 -20 -8 -20 -18 -5 -11 14 -14 11 -25 -19 -7 -19 -17 -34
-22 -34 -6 0 -8 4 -5 8 2 4 1 14 -4 22 -6 10 -14 7 -35 -16 -21 -23 -24 -25
-15 -6 7 13 7 22 1 22 -5 0 -17 -10 -26 -22 l-17 -23 7 25 8 24 -36 -27 c-42
-32 -58 -35 -32 -7 24 26 11 25 -28 -2 -26 -18 -29 -19 -17 -3 8 10 29 26 45
37 41 24 14 23 -35 -2 -22 -11 -40 -18 -40 -15 0 3 -10 0 -22 -6 -22 -11 -22
-11 2 16 l25 28 -25 -13 c-14 -7 -33 -19 -42 -28 -23 -19 -23 -9 -1 26 l17 27
-28 -25 c-21 -18 -30 -21 -33 -12 -4 10 -12 7 -30 -10 -25 -23 -25 -23 -14 -1
17 34 13 41 -9 13 l-20 -25 0 25 -1 25 -11 -22 c-6 -13 -14 -23 -18 -23 -5 0
-11 -11 -14 -25 -4 -14 -10 -23 -15 -21 -5 3 -14 -1 -21 -9 -7 -8 -16 -12 -21
-9 -5 3 -14 -7 -20 -23 -10 -27 -11 -27 -25 -9 -14 19 -14 19 -14 -1 0 -12 -4
-25 -10 -28 -5 -3 -10 3 -10 14 0 42 -20 31 -21 -11 l-1 -43 -13 30 -14 30 -2
-30 c-1 -16 0 -39 1 -50 3 -29 -10 -13 -25 32 -14 37 -14 38 -15 8 0 -16 -3
-40 -6 -53 -5 -18 -9 -20 -20 -11 -11 9 -14 7 -14 -9 0 -15 -5 -19 -20 -15
-14 4 -29 -3 -45 -21 -14 -15 -30 -24 -36 -20 -6 3 -24 -3 -40 -15 -15 -11
-31 -21 -35 -21 -4 0 -16 -7 -26 -17 -13 -12 -18 -13 -18 -3 0 9 -5 8 -19 -4
-18 -17 -20 -17 -30 1 -9 16 -11 16 -12 -7 -1 -18 -3 -20 -6 -7 -5 18 -5 18
-19 0 -12 -16 -15 -16 -24 -3 -5 8 -10 10 -10 4 0 -17 -30 -26 -45 -14 -9 8
-14 5 -19 -12 -4 -17 -8 -20 -15 -10 -7 11 -9 11 -14 -1 -3 -9 1 -21 8 -27 8
-7 12 -16 9 -21 -3 -5 25 -23 61 -40 74 -33 84 -49 14 -22 -42 17 -92 46 -134
78 -11 8 -45 32 -75 53 -37 26 -54 44 -52 56 3 14 -2 16 -32 11 -46 -9 -71 0
-85 32 -9 20 -14 24 -21 13 -6 -10 -14 -7 -34 14 -14 15 -29 25 -35 22 -9 -6
-103 59 -109 76 -2 4 -13 8 -25 9 -12 0 -16 3 -9 6 22 9 -7 33 -40 33 -16 0
-31 6 -34 15 -4 8 -12 15 -20 15 -8 0 -14 6 -15 13 0 9 -2 9 -5 0 -8 -19 -34
-3 -34 20 0 16 -3 18 -12 9 -13 -13 -48 -16 -48 -4 0 4 5 13 12 20 19 19 -2
14 -29 -8 -25 -19 -43 -19 -43 1 0 6 4 8 9 5 5 -3 11 1 15 9 8 21 -7 19 -39
-7 l-28 -22 7 27 c7 28 -8 38 -18 12 -8 -22 -26 -18 -26 7 0 21 0 21 -22 2
-19 -17 -21 -17 -15 -1 4 9 2 17 -3 17 -5 0 -7 7 -4 15 7 18 -26 21 -44 3 -9
-9 -12 -7 -12 10 0 28 -15 28 -34 0 l-16 -22 0 29 -1 30 -14 -25 c-14 -25 -14
-25 -15 -2 0 23 -31 44 -37 25 -2 -5 -11 -19 -19 -29 -14 -18 -15 -15 -10 34
3 30 1 52 -4 52 -6 0 -10 -6 -11 -12 0 -7 -9 -31 -20 -53 l-19 -40 4 67 c3 37
0 70 -5 73 -5 4 -9 -4 -9 -17 -1 -13 -9 -39 -20 -58 -19 -34 -19 -34 -20 -8 0
54 -30 78 -30 25 -1 -22 -1 -22 -15 -3 -8 11 -15 29 -16 40 0 20 -1 19 -10 -2
-9 -23 -9 -23 -30 -4 -12 12 -23 38 -26 61 -9 63 -20 58 -17 -7 l4 -57 -14 45
c-13 41 -14 42 -15 15 -1 -27 -3 -28 -12 -11 -8 13 -13 15 -19 6 -5 -8 -10 -3
-14 14 -7 26 -26 36 -26 14 -1 -7 -7 -2 -14 12 l-14 24 -4 -24 -4 -25 -12 27
c-18 43 -32 43 -33 1 -1 -36 -1 -37 -9 -10 -5 15 -23 42 -40 60 -21 21 -29 25
-24 13 5 -14 4 -17 -4 -12 -7 4 -12 2 -12 -4 0 -7 -7 -4 -16 5 -12 11 -25 14
-46 9 -21 -4 -33 -2 -39 7 -8 12 -10 12 -18 0 -7 -11 -10 -9 -16 8 -3 12 -11
19 -16 15 -5 -3 -6 -10 -3 -16 5 -7 2 -8 -5 -4 -7 5 -17 18 -22 30 -8 18 -9
16 -4 -9 5 -28 4 -29 -10 -11 -10 14 -15 15 -15 6 0 -11 -3 -11 -12 -2 -17 17
-26 15 -31 -5 -3 -12 -11 -2 -26 32 -38 86 -55 114 -63 109 -4 -3 -8 0 -8 5 0
6 4 11 9 11 13 0 58 -55 66 -80 8 -25 17 -25 40 0 16 18 16 20 2 20 -10 0 -17
5 -17 10 0 6 28 10 65 10 l65 0 0 30 0 30 -150 1 c-82 1 -156 2 -162 3 -7 1
-16 -2 -19 -6 -3 -5 -19 -2 -35 7 l-29 15 35 0 c341 4 1124 21 1199 26 86 6
101 9 101 24 0 15 -18 18 -157 23 -86 3 -161 11 -167 17 -6 6 -132 10 -361 11
-192 1 -408 4 -480 8 -237 12 468 25 895 17 l225 -5 -170 14 c-93 7 -215 14
-270 15 -55 1 -120 5 -145 10 -29 6 63 8 250 6 309 -4 333 -2 135 11 l-120 8
185 5 c183 6 181 6 -100 9 -157 1 -307 6 -335 11 -45 7 -47 7 -13 9 20 0 38 6
40 13 3 8 83 8 324 0 193 -6 323 -7 328 -1 6 5 -60 10 -170 11 -98 1 -159 4
-134 7 41 5 39 6 -30 11 -73 5 -72 5 70 16 l145 11 -200 -2 c-123 -2 -175 0
-135 4 l65 8 -62 1 c-34 1 -65 7 -68 12 -7 11 22 11 325 10 96 0 172 1 169 4
-3 3 -68 6 -144 7 -77 1 -183 4 -235 8 l-95 7 85 9 85 10 -90 6 -90 5 90 3
c81 3 85 4 45 12 -25 4 -88 9 -140 10 -91 2 -92 3 -35 9 l60 7 -70 3 c-65 3
-67 3 -25 9 56 8 -307 20 -635 22 -264 2 -523 13 -420 19 337 18 4118 18 4695
1z m-5610 -27 c0 -2 -13 2 -30 11 -16 9 -30 18 -30 21 0 2 14 -2 30 -11 17 -9
30 -18 30 -21z m31 -21 c13 -16 12 -17 -3 -4 -10 7 -18 15 -18 17 0 8 8 3 21
-13z m6426 -29 c-26 -20 -47 -41 -47 -47 0 -6 8 -3 18 6 10 10 25 17 33 17 8
-1 -6 -19 -31 -40 -49 -44 -74 -53 -44 -17 10 12 0 4 -24 -17 -23 -22 -54 -42
-69 -44 -29 -4 -83 -32 -83 -44 0 -4 -11 -19 -25 -34 -14 -15 -25 -23 -25 -19
0 4 -10 0 -22 -11 l-21 -19 19 30 c55 89 85 114 287 243 69 43 92 41 34 -4z
m-4529 9 c-10 -2 -26 -2 -35 0 -10 3 -2 5 17 5 19 0 27 -2 18 -5z m2125 -30
c-7 -2 -19 -2 -25 0 -7 3 -2 5 12 5 14 0 19 -2 13 -5z m-2060 -60 c-7 -2 -19
-2 -25 0 -7 3 -2 5 12 5 14 0 19 -2 13 -5z m2129 -20 c-6 -2 -9 -10 -5 -16 4
-7 0 -8 -11 -4 -10 4 -20 7 -22 7 -3 0 -2 5 1 10 3 6 16 10 28 9 12 0 16 -3 9
-6z m-3449 -43 c3 -11 3 -20 1 -20 -2 0 -8 9 -14 20 -6 11 -7 20 -2 20 6 0 12
-9 15 -20z m3485 3 c-10 -2 -28 -2 -40 0 -13 2 -5 4 17 4 22 1 32 -1 23 -4z
m-3375 -138 c28 -55 50 -108 48 -119 -2 -12 2 -17 11 -14 9 4 13 26 11 84 l-1
79 21 -87 c12 -48 28 -93 36 -100 11 -11 13 -9 7 12 -4 14 -9 39 -12 55 l-5
30 15 -30 c9 -18 15 -24 15 -13 2 35 36 12 51 -35 16 -49 35 -66 24 -21 -5 19
-4 25 5 20 6 -4 11 -16 11 -27 0 -10 4 -19 9 -19 5 0 9 34 9 76 -1 49 3 79 12
87 10 9 11 9 6 0 -9 -17 -10 -113 -1 -154 7 -32 8 -33 16 -11 5 14 5 31 -1 42
-13 24 -13 30 0 30 6 0 15 -10 20 -22 9 -23 9 -23 10 2 2 21 4 18 15 -15 19
-57 19 -125 0 -125 -8 0 -15 7 -15 15 0 8 -4 15 -10 15 -5 0 -10 8 -11 18 0
11 -5 7 -14 -12 l-12 -30 -8 24 c-7 23 -7 23 -19 2 -14 -26 -41 -14 -50 22 -8
31 -46 32 -47 1 0 -19 -1 -19 -9 3 -10 24 -30 30 -30 10 -1 -7 -7 -2 -15 12
-7 14 -18 25 -25 25 -6 0 -15 7 -20 15 -14 23 -24 2 -12 -25 17 -36 15 -50 -2
-36 -15 12 -86 173 -86 194 0 6 7 2 15 -9 21 -28 20 0 -4 67 -10 30 -22 63
-26 74 -13 37 13 -5 68 -110z m-845 80 c60 -30 72 -32 41 -5 -25 20 -21 26 9
11 26 -13 64 -29 96 -41 26 -9 27 -9 16 5 -17 21 -6 19 16 -2 13 -13 19 -14
22 -5 2 8 13 4 34 -13 17 -15 37 -24 45 -21 8 3 29 -1 46 -10 l32 -17 -19 22
c-11 11 -14 21 -8 21 6 0 13 -4 16 -9 4 -5 27 -16 52 -25 42 -14 45 -14 33 1
-13 14 -10 14 19 -1 55 -28 73 -15 22 16 -57 34 -39 37 21 3 83 -47 88 -48
109 -39 20 9 19 10 -10 42 -54 59 -32 47 39 -21 38 -37 73 -67 78 -67 4 0 -7
14 -25 31 -19 17 -31 33 -28 36 3 3 14 -5 25 -18 27 -33 34 -20 16 31 -17 48
-19 74 -6 66 5 -3 15 -30 21 -58 19 -78 41 -129 53 -121 6 3 7 1 3 -6 -4 -6 1
-26 11 -44 36 -62 35 -68 -10 -37 -23 15 -53 40 -66 54 -31 33 -46 34 -25 0
l17 -25 -29 6 c-16 4 -47 16 -69 26 -22 10 -41 15 -43 10 -2 -6 -27 4 -55 21
l-52 30 29 -31 c36 -38 22 -39 -47 -5 -51 26 -52 26 -32 4 19 -22 18 -22 -19
3 -21 14 -45 23 -54 20 -8 -4 -13 -2 -9 3 3 5 -6 11 -21 12 -25 2 -25 2 -6
-13 27 -23 -41 11 -81 39 -16 11 -30 19 -30 17 0 -2 -19 6 -42 18 -23 11 -50
21 -60 20 -16 0 -16 -1 2 -9 17 -7 17 -9 3 -9 -10 -1 -22 8 -28 18 -5 11 -27
30 -47 42 -37 23 -69 49 -60 49 3 0 28 -11 55 -25z m6026 -50 c-50 -82 -71
-103 -28 -27 33 56 64 102 69 102 3 0 -16 -34 -41 -75z m-1184 55 c0 -5 -4
-10 -10 -10 -5 0 -10 5 -10 10 0 6 5 10 10 10 6 0 10 -4 10 -10z m-3017 -37
c-18 -2 -48 -2 -65 0 -18 2 -4 4 32 4 36 0 50 -2 33 -4z m-1044 -65 c1 -15 12
-57 26 -94 16 -42 20 -62 11 -55 -7 6 -20 35 -29 64 -18 61 -32 163 -18 132 5
-11 10 -32 10 -47z m-193 11 c19 -22 19 -22 -3 -10 -24 12 -39 31 -25 31 5 0
17 -10 28 -21z m402 -20 c-3 -8 -7 -3 -11 10 -4 17 -3 21 5 13 5 -5 8 -16 6
-23z m68 -14 c-4 -14 -10 -25 -15 -25 -5 0 -4 13 2 30 13 35 22 32 13 -5z
m5530 -8 c-17 -12 -57 -45 -90 -74 -34 -28 -63 -47 -65 -42 -2 6 -14 0 -27
-12 -13 -12 -26 -20 -30 -17 -3 3 14 24 37 47 24 22 45 39 47 36 3 -2 17 5 33
15 33 24 112 70 119 70 3 -1 -8 -10 -24 -23z m-4896 -16 c0 -4 -18 -8 -40 -9
-22 -1 -40 3 -40 9 0 6 9 8 19 4 11 -3 22 -1 25 4 7 11 36 4 36 -8z m840 -1
c0 -5 -8 -10 -17 -10 -15 0 -16 2 -3 10 19 12 20 12 20 0z m3859 -59 c-29 -34
-58 -61 -62 -61 -5 0 -27 -20 -49 -45 -22 -25 -43 -44 -45 -41 -12 12 93 140
108 130 4 -2 27 16 50 41 62 67 60 46 -2 -24z m276 61 c-6 -4 -23 -18 -40 -32
l-30 -25 29 33 c17 17 34 32 40 32 6 0 6 -3 1 -8z m-5908 -24 c-3 -8 -6 -5 -6
6 -1 11 2 17 5 13 3 -3 4 -12 1 -19z m5833 18 c0 -2 -8 -10 -17 -17 -16 -13
-17 -12 -4 4 13 16 21 21 21 13z m-1331 -24 c-17 -7 -44 -10 -60 -7 -51 11
-31 25 32 23 60 -3 60 -3 28 -16z m86 -4 c6 -4 0 -8 -12 -8 -16 0 -21 4 -16
15 3 9 8 12 12 8 3 -4 11 -11 16 -15z m483 2 c-7 -10 -14 -18 -15 -16 -6 6 9
36 18 36 5 0 4 -9 -3 -20z m-4764 -16 c3 -8 2 -12 -4 -9 -6 3 -10 10 -10 16 0
14 7 11 14 -7z m4650 -18 c-3 -8 -14 -16 -26 -19 -19 -5 -19 -5 -2 14 20 22
36 25 28 5z m311 4 c-3 -5 -16 -15 -28 -21 -21 -10 -21 -9 2 10 25 23 36 27
26 11z m-4811 -46 c1 -21 6 -39 12 -41 6 -2 9 9 8 29 -3 32 -3 32 11 -7 7 -22
14 -34 14 -27 1 15 41 6 53 -12 4 -6 8 5 9 24 l1 35 14 -30 c11 -22 14 -24 10
-7 -5 28 6 29 19 0 6 -12 17 -24 25 -26 9 -3 7 2 -5 12 l-20 16 20 -6 c32 -11
45 -35 44 -83 l-1 -46 -13 35 c-12 34 -32 41 -47 17 -6 -9 -8 -8 -8 1 0 7 -4
11 -9 7 -5 -3 -12 -1 -16 5 -10 16 -25 2 -19 -18 2 -9 -1 -7 -7 5 -12 23 -39
39 -39 23 0 -5 -7 -7 -15 -4 -10 4 -15 0 -15 -11 0 -14 -4 -13 -20 8 -15 19
-20 40 -20 88 0 65 12 76 14 13z m5052 -6 c-31 -61 -71 -121 -90 -137 -21 -18
-20 -8 4 31 11 18 20 37 20 42 0 15 -31 -16 -46 -47 -9 -16 -18 -26 -21 -23
-8 8 42 88 73 116 16 14 22 17 15 7 -8 -9 -11 -20 -8 -23 3 -3 20 13 38 35 18
23 33 41 34 41 1 0 -7 -19 -19 -42z m-1591 1 c0 -10 -10 -13 -34 -11 -44 3
-49 9 -26 26 22 16 60 6 60 -15z m1480 -27 c-5 -28 -69 -125 -73 -112 -3 9 -7
9 -13 -1 -7 -12 -9 -11 -9 1 0 8 -12 -3 -26 -25 -18 -28 -23 -33 -18 -15 13
48 37 85 82 128 49 46 63 52 57 24z m-1100 -2 c14 -6 -4 -9 -56 -9 -42 -1
-131 -4 -197 -8 -87 -4 -122 -3 -122 5 0 17 339 28 375 12z m345 0 c0 -6 -37
-10 -92 -9 -62 1 -85 4 -68 9 37 12 160 12 160 0z m75 0 c3 -5 2 -10 -4 -10
-5 0 -13 5 -16 10 -3 6 -2 10 4 10 5 0 13 -4 16 -10z m49 2 c3 -5 -1 -9 -9 -9
-8 0 -15 4 -15 9 0 4 4 8 9 8 6 0 12 -4 15 -8z m-5420 -88 c37 -31 65 -58 62
-62 -6 -5 -12 -1 -98 76 -69 61 -43 51 36 -14z m5506 42 c0 -3 -4 -8 -10 -11
-5 -3 -10 -1 -10 4 0 6 5 11 10 11 6 0 10 -2 10 -4z m-5293 -27 c-21 -11 -46
-19 -55 -17 -10 2 1 11 28 20 62 22 73 21 27 -3z m10 -25 c-3 -3 -12 -4 -19
-1 -8 3 -5 6 6 6 11 1 17 -2 13 -5z m66 -10 c-37 -16 -44 -30 -10 -20 86 27
125 33 120 19 -3 -7 -11 -13 -18 -13 -8 0 -16 -4 -19 -9 -8 -12 82 -6 118 8
43 17 42 7 -1 -12 -79 -33 -210 -40 -225 -12 -5 8 -15 12 -25 8 -11 -5 -14 -3
-8 6 9 15 63 40 85 40 8 0 0 -7 -17 -15z m5597 13 c0 -2 -10 -12 -21 -23 -22
-19 -22 -19 -8 4 12 19 29 30 29 19z m-74 -65 c-17 -16 -18 -16 -5 5 7 12 15
20 18 17 3 -2 -3 -12 -13 -22z m-5313 -21 c20 -10 54 -22 74 -26 21 -4 50 -13
65 -21 15 -8 40 -14 55 -14 27 -1 26 -2 -12 -19 -22 -10 -51 -22 -65 -25 -25
-7 -25 -7 -5 10 20 16 19 16 -7 10 -14 -3 -34 -9 -45 -12 -16 -5 -16 -4 2 11
19 16 19 17 -15 12 -19 -3 -48 -8 -65 -12 -47 -10 -23 5 42 26 l58 19 -60 -6
c-33 -3 -68 -10 -77 -15 -13 -7 -20 -4 -27 9 -10 19 2 30 49 45 8 3 -2 6 -23
6 -23 1 -36 5 -32 11 10 16 47 12 88 -9z m5997 -46 c0 -2 -13 -11 -30 -20 -38
-19 -40 -11 -2 9 31 17 32 18 32 11z m-5660 -9 c0 -7 -72 -47 -77 -42 -3 2 12
14 34 25 42 22 43 23 43 17z m4686 -24 c-18 -16 -18 -16 -6 6 6 13 14 21 18
18 3 -4 -2 -14 -12 -24z m884 5 c0 -2 -19 -19 -42 -37 -23 -19 -38 -28 -34
-22 4 7 2 12 -3 12 -6 0 -11 -3 -11 -7 0 -5 -10 -19 -21 -33 l-20 -25 7 25 c6
24 6 24 -13 8 -21 -19 -48 -25 -38 -8 9 14 108 77 131 83 25 6 44 8 44 4z
m-5540 -26 c0 -5 -10 -12 -22 -14 -13 -3 4 -3 37 -2 59 3 59 3 30 -11 -28 -14
-26 -14 40 -9 39 4 81 9 95 12 24 5 25 5 5 -10 -12 -10 -15 -16 -7 -17 7 0 10
-5 6 -11 -3 -6 -15 -9 -25 -6 -11 3 -19 1 -19 -4 0 -5 26 -9 58 -9 58 0 138
-21 125 -33 -11 -12 16 -8 54 8 40 17 57 13 24 -5 -35 -18 -24 -28 22 -19 23
4 60 8 82 7 34 0 31 -2 -19 -9 -71 -10 -83 -19 -30 -20 l39 -2 -35 -7 c-32 -7
-30 -7 20 -9 71 -2 107 -11 88 -22 -8 -5 10 -9 45 -9 35 0 56 -4 52 -10 -3 -5
7 -12 22 -16 15 -4 42 -17 58 -29 17 -12 47 -27 67 -34 21 -7 40 -17 43 -22 4
-5 15 -9 26 -9 19 0 99 -45 99 -56 0 -3 -10 2 -21 10 -12 8 -27 12 -34 10 -7
-3 -27 2 -44 10 -38 20 -47 20 -31 1 17 -20 13 -19 -72 12 -40 14 -89 30 -108
34 -85 18 -200 50 -253 70 l-58 22 31 15 c44 21 31 26 -35 12 -51 -11 -55 -13
-38 -26 10 -7 36 -19 58 -26 29 -8 35 -13 20 -16 -10 -2 -33 3 -50 11 -91 47
-146 67 -181 67 l-39 -1 32 -14 c17 -7 40 -22 51 -33 11 -11 30 -25 41 -32 12
-6 21 -15 21 -20 0 -12 -128 49 -151 72 -10 9 -36 22 -58 28 -23 6 -41 12 -41
13 0 1 43 0 96 -1 53 -2 100 0 106 6 12 12 -63 25 -96 16 -16 -4 -25 -1 -29 9
-4 11 -17 14 -49 11 l-43 -4 35 10 c56 17 63 20 58 26 -3 3 -34 -2 -68 -11
-76 -20 -111 -15 -60 8 19 9 28 16 19 17 -16 0 -103 -15 -144 -25 -11 -3 3 6
30 19 53 26 43 30 -38 17 -40 -7 -47 -5 -42 6 4 12 -2 13 -28 8 -23 -5 -29 -4
-22 4 13 13 99 31 180 38 33 2 62 7 64 9 7 7 11 5 11 -5z m5324 -73 c-38 -42
-68 -67 -73 -62 -2 2 2 11 10 21 8 10 -8 0 -36 -22 -48 -39 -49 -39 -31 -10
l19 30 -32 -29 c-17 -17 -31 -25 -31 -19 0 29 130 108 199 122 3 1 -8 -13 -25
-31z m326 -52 c0 -2 -17 -16 -37 -31 l-38 -27 33 31 c30 29 42 37 42 27z
m-5737 -23 c-7 -2 -19 -2 -25 0 -7 3 -2 5 12 5 14 0 19 -2 13 -5z m3827 -96
c0 -2 -10 -12 -22 -23 l-23 -19 19 23 c18 21 26 27 26 19z m1630 -228 c120
-33 205 -83 296 -174 62 -61 89 -98 117 -155 142 -298 43 -637 -234 -801 -345
-205 -817 -104 -1008 215 -45 75 -81 201 -81 281 0 80 23 201 49 260 36 80
114 187 176 238 90 75 238 139 370 161 62 9 242 -4 315 -25z m-5647 5 c201
-44 393 -194 473 -368 60 -132 68 -300 19 -439 -104 -299 -469 -491 -805 -423
-47 10 -89 21 -95 26 -5 4 -27 11 -47 15 -21 4 -38 11 -38 16 0 5 -8 9 -19 9
-10 0 -24 7 -31 15 -7 8 -17 15 -22 15 -36 0 -167 123 -219 205 -63 98 -82
160 -87 280 -7 184 45 328 165 455 97 103 206 164 348 195 85 19 271 18 358
-1z m2016 -28 c135 -36 231 -107 281 -210 95 -192 34 -404 -142 -492 -29 -14
-55 -28 -56 -30 -2 -1 22 -36 54 -76 131 -167 182 -203 287 -202 59 0 67 -2
67 -19 0 -33 -97 -123 -178 -165 -108 -56 -143 -58 -198 -10 -20 18 -101 119
-180 225 -79 106 -153 197 -164 203 -15 8 -76 9 -201 4 l-179 -7 0 -119 c0
-78 5 -130 14 -151 16 -39 70 -87 97 -87 23 0 24 -8 4 -30 -14 -15 -37 -16
-214 -12 -134 3 -210 1 -231 -7 -25 -8 -39 -8 -59 2 -39 18 -39 43 1 51 48 10
78 33 99 79 17 39 19 71 19 461 0 404 -1 421 -21 462 -26 55 -72 84 -131 84
-45 0 -66 13 -62 38 1 6 2 17 3 22 1 7 165 9 514 7 442 -4 521 -7 576 -21z
m1896 -5 c119 -39 204 -90 281 -166 111 -111 154 -222 154 -397 0 -232 -114
-409 -333 -517 -161 -80 -179 -82 -602 -91 -359 -7 -371 -6 -387 13 -24 26
-22 37 6 37 36 0 89 41 110 85 19 37 20 65 20 455 1 410 1 415 -21 456 -29 54
-80 86 -141 88 -51 1 -66 20 -38 48 12 12 81 15 448 14 426 -1 434 -2 503 -25z
m-4235 -1382 c0 -13 -10 -24 -30 -30 -44 -16 -45 -40 -7 -127 130 -293 208
-465 232 -512 32 -65 72 -110 96 -110 24 0 32 -15 15 -29 -20 -17 -328 -11
-333 6 -3 7 7 17 21 23 38 14 41 33 16 100 l-22 60 -153 0 -153 0 -22 -54
c-26 -65 -24 -87 13 -104 31 -15 34 -27 11 -36 -25 -10 -298 -7 -314 4 -17 11
-13 16 32 39 38 21 62 63 210 386 151 329 150 326 93 347 -26 9 -35 17 -33 31
3 18 13 19 143 18 77 -1 147 3 155 8 18 13 30 5 30 -20z m2758 -91 c-3 -60 -8
-112 -12 -115 -3 -4 -24 12 -46 34 -97 102 -280 70 -368 -63 -84 -126 -57
-316 56 -399 57 -41 108 -57 183 -56 67 0 109 18 141 61 41 56 49 41 46 -81
l-3 -111 -137 -5 c-157 -6 -213 3 -301 50 -74 39 -160 132 -186 202 -96 255
62 538 327 587 47 9 86 9 160 0 81 -9 99 -9 111 3 28 27 34 4 29 -107z m602
86 c0 -14 -6 -24 -14 -24 -35 0 -46 -40 -46 -172 l0 -128 193 2 192 3 3 107
c4 139 -4 170 -47 182 -24 7 -31 14 -29 28 3 18 13 20 161 21 86 1 157 1 157
0 0 -1 3 -8 6 -17 4 -10 -5 -19 -30 -30 -27 -11 -36 -22 -41 -48 -3 -18 -5
-173 -3 -344 3 -290 4 -313 22 -333 11 -12 27 -21 38 -21 20 0 22 -8 9 -29
-13 -21 -297 -19 -318 2 -14 14 -12 17 20 30 20 9 39 25 43 39 11 30 7 269 -4
280 -5 5 -89 7 -188 6 l-179 -3 -3 -138 c-3 -148 3 -173 44 -183 16 -4 24 -12
22 -23 -3 -14 -26 -17 -158 -22 -117 -4 -158 -3 -169 7 -17 15 -6 34 19 34 10
0 27 11 38 25 18 22 20 46 24 292 2 147 1 300 -2 338 -5 68 -6 71 -40 87 -20
10 -35 25 -35 35 0 15 13 17 135 15 75 -2 142 2 150 7 19 13 30 5 30 -25z
m-2529 12 c204 -4 232 -6 275 -25 60 -27 81 -45 106 -95 40 -77 18 -187 -43
-223 -35 -21 -36 -29 -4 -37 58 -15 125 -100 140 -178 11 -56 -18 -138 -63
-184 -68 -70 -102 -77 -400 -83 -145 -3 -270 -2 -278 2 -23 13 -16 32 16 44
56 21 60 47 60 386 0 288 -1 306 -20 330 -11 13 -31 28 -45 31 -40 10 -31 50
9 41 12 -3 123 -7 247 -9z m3934 -1 c44 0 100 2 125 5 39 4 45 3 45 -14 0 -11
-13 -27 -30 -36 -19 -11 -29 -24 -28 -36 2 -19 223 -526 269 -616 26 -50 66
-88 95 -88 22 0 25 -13 7 -28 -14 -11 -315 -16 -342 -6 -25 10 -19 22 15 29
50 11 57 43 23 107 l-29 53 -150 3 -151 2 -27 -55 c-32 -61 -29 -86 8 -103 28
-13 32 -27 11 -35 -8 -3 -82 -7 -165 -8 -109 -1 -155 2 -166 11 -22 18 -19 27
13 33 50 10 84 48 128 141 130 279 233 505 243 535 13 40 3 57 -40 66 -22 5
-29 12 -29 31 0 23 2 23 48 16 26 -4 83 -7 127 -7z m1276 5 c180 -34 324 -179
347 -351 27 -192 -62 -361 -236 -446 -76 -38 -76 -38 -201 -38 -107 0 -134 4
-181 23 -120 48 -216 149 -251 265 -97 315 186 611 522 547z"/>
<path d="M5230 8919 c-74 -4 -190 -16 -257 -28 -66 -12 -126 -21 -132 -21 -13
0 -14 -34 -2 -58 5 -9 38 -108 72 -219 34 -111 66 -200 71 -197 5 3 6 -6 2
-20 -8 -33 9 -34 26 -1 10 19 16 22 23 13 6 -9 7 -4 3 12 -6 32 -32 227 -46
353 -12 103 -8 137 8 71 11 -49 62 -271 68 -301 2 -13 12 -23 22 -24 10 0 12
-3 5 -6 -16 -6 -17 -33 -2 -33 5 0 7 4 4 10 -3 5 6 12 20 16 22 5 24 10 20 43
-8 59 -25 229 -25 251 0 35 19 22 31 -22 11 -42 50 -250 52 -275 0 -7 5 -13
10 -13 5 0 7 6 4 14 -3 8 1 20 9 26 18 16 19 -2 2 -33 -7 -12 -13 -31 -15 -42
-3 -17 -1 -16 14 5 10 14 19 36 21 50 2 13 6 27 9 30 3 3 3 -7 1 -22 -3 -16
-2 -28 2 -28 4 0 5 53 2 119 -5 131 6 254 19 211 4 -14 7 -46 8 -72 1 -27 4
-48 9 -48 4 0 8 -17 8 -37 1 -21 4 -54 6 -73 3 -19 6 -47 7 -62 0 -16 5 -28
10 -28 5 0 8 12 5 26 -4 22 -2 25 16 19 15 -5 20 -2 21 12 0 10 2 25 3 33 2 8
6 53 10 100 7 101 21 198 28 205 6 6 17 -162 19 -286 2 -69 4 -76 20 -72 14 4
19 0 19 -15 0 -12 -4 -23 -9 -27 -6 -3 -8 3 -6 14 3 14 -1 18 -12 14 -8 -3
-10 -9 -5 -12 5 -3 8 -14 6 -24 -2 -14 1 -15 10 -8 7 6 15 8 19 5 3 -3 8 21
12 53 11 101 36 246 45 262 11 20 14 -22 13 -204 -1 -71 1 -120 3 -107 3 13
13 22 24 22 22 0 28 18 60 190 38 202 49 180 29 -57 -7 -74 -8 -152 -4 -180 5
-28 10 -40 13 -28 7 35 22 41 23 9 0 -16 10 12 20 61 11 50 36 160 57 245 31
131 37 148 40 112 2 -24 -6 -119 -18 -212 l-22 -169 21 -30 c12 -16 21 -35 22
-43 1 -24 39 94 79 243 46 176 63 219 86 219 10 0 14 -5 10 -15 -7 -19 -63
-265 -81 -357 -7 -38 -9 -68 -4 -68 5 0 9 -11 9 -25 0 -14 3 -25 8 -25 24 1
43 36 102 195 42 110 92 225 100 225 25 0 21 -13 -70 -298 -34 -106 -59 -196
-56 -200 4 -3 11 0 16 8 8 13 10 12 10 -2 0 -46 33 4 133 201 59 118 115 223
124 233 34 38 30 3 -14 -100 -25 -59 -67 -162 -94 -229 l-49 -122 25 -25 25
-25 18 27 c10 15 59 98 107 184 86 152 156 250 169 237 4 -4 -43 -105 -104
-225 -61 -120 -109 -223 -106 -228 2 -6 8 0 13 14 l10 24 15 -28 14 -28 51 59
c27 32 61 74 74 95 35 51 141 175 157 182 17 7 18 9 -94 -159 -51 -78 -94
-147 -96 -155 -2 -7 -11 -22 -21 -32 -10 -10 -15 -24 -11 -31 4 -7 4 -9 -1 -5
-4 4 -14 0 -21 -10 -16 -20 -19 -66 -4 -57 6 3 10 2 10 -4 0 -5 -4 -13 -10
-16 -5 -3 -10 -11 -10 -17 0 -6 8 -3 19 8 10 10 17 22 15 26 -3 3 2 8 10 10 7
2 79 77 158 168 151 172 175 196 184 187 3 -2 -24 -41 -60 -86 -36 -44 -66
-83 -66 -86 0 -5 -97 -136 -158 -214 -15 -19 -26 -41 -24 -49 2 -9 -1 -11 -9
-6 -9 5 -10 2 -6 -10 4 -10 7 -24 7 -31 0 -14 143 132 245 249 33 38 82 92
108 120 l49 51 -23 -42 c-12 -23 -44 -69 -71 -102 -26 -33 -48 -64 -48 -69 0
-6 -11 -20 -24 -33 -18 -18 -22 -28 -15 -41 7 -14 6 -16 -6 -12 -18 7 -29 -3
-93 -94 -70 -98 -70 -130 0 -74 49 39 65 55 167 172 96 109 292 302 300 294 2
-2 -18 -30 -45 -61 -28 -32 -81 -98 -119 -147 -39 -50 -80 -100 -92 -112 -13
-11 -23 -26 -23 -31 0 -5 -13 -22 -29 -37 -28 -27 -29 -30 -15 -51 10 -16 12
-25 5 -30 -6 -3 -11 1 -11 9 0 9 -7 16 -15 16 -19 0 -19 -5 -1 -23 16 -15 70
-11 60 4 -3 5 0 9 5 9 15 0 87 64 293 259 83 79 118 107 118 95 0 -4 -26 -35
-57 -68 -112 -119 -198 -214 -223 -245 -14 -17 -31 -31 -37 -31 -7 0 -13 -9
-13 -21 0 -11 -4 -18 -9 -14 -5 3 -12 1 -16 -5 -3 -5 0 -10 9 -10 8 0 20 -13
28 -30 13 -29 28 -40 28 -20 0 6 6 10 14 10 22 0 31 21 15 32 -11 8 -10 9 4 4
17 -5 28 3 178 125 71 58 189 140 189 130 0 -4 -56 -58 -124 -118 -69 -61
-122 -114 -119 -117 4 -3 -1 -6 -10 -6 -9 0 -28 -16 -43 -36 -28 -37 -40 -78
-20 -71 6 2 10 12 10 21 -2 13 1 14 12 5 8 -6 11 -16 7 -22 -4 -6 -1 -7 6 -3
7 5 10 14 7 22 -3 8 -1 14 4 14 13 0 13 -16 -1 -41 -5 -11 -15 -17 -22 -13 -7
4 -8 3 -4 -2 13 -14 30 -11 47 6 8 8 20 16 25 17 13 2 167 98 232 145 70 49
123 81 129 76 2 -3 -37 -37 -88 -77 -51 -40 -100 -78 -108 -84 -9 -7 -49 -39
-89 -72 -41 -33 -83 -65 -95 -71 -11 -6 -20 -16 -18 -23 1 -7 -2 -10 -6 -7 -9
5 -47 -29 -47 -43 0 -3 -4 -7 -10 -7 -5 -1 -14 -2 -19 -3 -5 0 -3 -8 4 -16 11
-13 8 -15 -16 -15 -16 0 -42 -10 -59 -21 l-30 -21 33 6 c19 3 32 1 32 -5 0
-12 30 -5 75 18 17 8 77 39 135 68 58 29 148 77 200 107 118 68 241 131 246
125 4 -4 -15 -17 -201 -140 -55 -36 -105 -70 -111 -75 -5 -5 -21 -15 -35 -22
-21 -11 -42 -27 -95 -69 -6 -5 -20 -12 -32 -15 -12 -4 -20 -12 -17 -17 3 -5 0
-6 -8 -4 -7 3 -26 -6 -43 -20 -16 -14 -32 -25 -35 -25 -3 0 -6 -7 -6 -15 0
-18 13 -20 20 -2 4 9 6 9 6 0 1 -6 -8 -18 -19 -26 -11 -8 -17 -17 -12 -22 4
-4 -1 -5 -10 -2 -23 8 -48 -1 -48 -19 0 -13 188 59 360 139 41 19 98 45 125
57 28 12 97 44 153 71 57 27 107 49 110 49 4 0 -25 -20 -63 -44 -121 -77 -242
-146 -256 -146 -11 0 -11 -2 1 -10 13 -9 13 -10 0 -11 -8 -1 -21 -1 -29 0 -8
2 -10 -2 -5 -10 5 -9 2 -10 -10 -6 -14 6 -16 3 -11 -14 5 -14 3 -19 -3 -15 -6
3 -18 3 -28 -1 -15 -6 -15 -7 4 -14 12 -5 22 -13 22 -19 0 -15 -20 -12 -21 3
0 6 -5 -1 -9 -17 -6 -20 -5 -32 4 -41 15 -15 66 -8 73 11 2 7 12 10 20 7 12
-5 14 -3 8 6 -5 10 -2 11 12 7 11 -4 69 14 143 43 69 26 134 51 145 55 41 15
-64 -46 -192 -111 -72 -37 -129 -72 -126 -77 4 -5 0 -7 -9 -4 -8 4 -21 2 -29
-3 -9 -6 7 -8 45 -7 43 2 60 -1 64 -11 3 -10 0 -12 -12 -8 -10 4 -16 1 -16 -9
0 -11 4 -12 19 -4 28 14 41 13 41 -6 0 -10 4 -12 13 -7 6 4 14 8 17 9 128 22
202 11 281 -42 37 -24 49 -29 44 -17 -21 55 -27 126 -16 178 13 57 61 139 92
156 27 14 25 22 -23 92 -160 238 -450 543 -678 713 -458 341 -1015 552 -1505
569 -82 3 -170 7 -195 8 -25 2 -106 0 -180 -4z m340 -409 c0 -5 -7 -10 -15
-10 -8 0 -15 5 -15 10 0 6 7 10 15 10 8 0 15 -4 15 -10z m1115 -540 c3 -6 -1
-7 -9 -4 -18 7 -21 14 -7 14 6 0 13 -4 16 -10z m133 -67 c-2 -10 3 -24 12 -31
13 -11 12 -12 -7 -3 -15 8 -20 17 -16 31 7 25 16 27 11 3z m137 -33 c-3 -5
-12 -10 -18 -10 -7 0 -6 4 3 10 19 12 23 12 15 0z m37 -35 c3 -13 1 -22 -3
-19 -9 5 -13 44 -5 44 2 0 6 -11 8 -25z m258 -419 c0 -3 -4 -8 -10 -11 -5 -3
-10 -1 -10 4 0 6 5 11 10 11 6 0 10 -2 10 -4z m-30 -26 c0 -5 -7 -7 -15 -4 -8
4 -15 8 -15 10 0 2 7 4 15 4 8 0 15 -4 15 -10z m133 -47 c-5 -12 -3 -14 8 -8
11 6 12 5 2 -5 -7 -8 -16 -11 -19 -7 -7 6 2 37 10 37 3 0 2 -7 -1 -17z m-28
-13 c3 -5 1 -10 -4 -10 -6 0 -11 5 -11 10 0 6 2 10 4 10 3 0 8 -4 11 -10z m55
-30 c0 -5 -4 -10 -10 -10 -5 0 -10 5 -10 10 0 6 5 10 10 10 6 0 10 -4 10 -10z"/>
<path d="M4715 8835 c-297 -84 -547 -188 -770 -318 -78 -46 -308 -215 -426
-313 -87 -72 -257 -247 -340 -350 -67 -82 -199 -270 -199 -282 0 -5 31 -12 70
-14 70 -5 93 -16 170 -78 35 -28 212 -71 273 -66 26 2 49 0 52 -4 2 -4 21 -6
42 -5 21 1 44 -3 52 -9 11 -9 13 -6 8 14 -4 14 -4 19 -1 13 8 -18 24 -16 24 2
0 8 -7 15 -15 15 -8 0 -15 4 -15 8 0 5 -27 23 -60 40 l-60 31 0 -26 c0 -21 -2
-24 -15 -13 -18 15 -20 40 -2 40 6 0 -13 14 -43 32 -156 88 -260 151 -256 155
2 2 73 -29 157 -70 254 -123 496 -217 527 -206 16 6 20 5 15 -7 -6 -17 0 -17
46 0 l34 12 -29 21 c-16 11 -65 39 -109 63 -44 24 -97 54 -117 67 -21 12 -42
23 -47 23 -5 0 -11 3 -13 8 -3 8 -120 88 -207 142 -63 39 -161 110 -161 116 0
11 127 -56 279 -149 25 -15 151 -79 278 -143 228 -112 305 -140 296 -103 -4
14 -46 41 -63 41 -3 0 -9 6 -13 14 -4 8 -12 14 -17 14 -9 0 -116 71 -190 127
-225 169 -285 215 -352 271 -42 35 -79 71 -83 79 -5 14 -3 14 12 2 26 -20 24
-19 198 -136 288 -192 430 -277 446 -267 5 3 9 1 9 -5 0 -6 10 -16 23 -22 18
-9 20 -9 10 2 -9 9 -9 16 -2 25 7 8 6 14 -2 20 -8 5 -10 2 -5 -7 4 -8 1 -5 -6
6 -15 24 -39 45 -218 201 -170 147 -314 283 -307 291 7 6 9 5 171 -122 176
-137 186 -144 205 -138 12 4 13 3 3 -5 -10 -7 0 -19 45 -51 32 -22 64 -41 70
-41 7 0 13 -4 13 -10 0 -5 5 -10 10 -10 6 0 19 -9 30 -20 21 -21 50 -27 50 -9
0 5 -4 8 -9 5 -5 -3 -14 1 -20 8 -8 9 -9 16 -2 21 13 7 -36 65 -55 65 -8 0
-11 6 -7 17 5 13 2 15 -11 10 -12 -5 -16 -3 -14 5 3 7 -81 100 -186 206 -105
106 -193 198 -195 204 -5 15 59 -35 175 -137 286 -253 282 -249 302 -233 11
10 19 8 36 -12 12 -14 29 -26 37 -28 8 -2 0 11 -18 30 -17 18 -44 48 -60 67
-15 19 -37 44 -48 56 -11 12 -24 29 -30 38 -5 8 -55 67 -110 131 -55 65 -113
132 -129 151 -16 19 -26 38 -22 42 5 5 109 -95 233 -222 124 -126 223 -222
220 -212 -4 11 -3 16 3 12 6 -3 10 -13 10 -21 0 -24 17 -16 23 11 3 18 -2 30
-17 40 -11 8 -17 15 -13 15 4 0 0 11 -9 25 -9 14 -21 22 -28 18 -6 -3 -8 -2
-3 2 9 10 -9 39 -71 115 -15 19 -43 57 -61 84 -18 28 -44 65 -58 83 -46 61 -8
34 63 -43 38 -42 71 -81 72 -85 2 -5 10 -9 18 -9 8 0 14 -6 14 -12 1 -20 142
-165 147 -150 3 6 11 12 19 12 20 0 19 4 -34 78 -27 37 -78 110 -114 163 -37
52 -73 101 -82 108 -18 15 -21 31 -7 31 13 0 161 -168 234 -265 78 -104 86
-110 109 -86 17 19 16 23 -39 113 -30 51 -91 146 -135 211 -44 66 -78 121 -75
123 7 8 121 -125 191 -223 72 -101 109 -135 133 -126 11 4 14 2 9 -5 -4 -7 -2
-12 3 -12 6 0 11 4 11 10 0 5 -55 117 -122 249 -113 223 -133 274 -93 241 14
-11 187 -295 255 -417 13 -24 27 -43 32 -43 4 0 8 -6 8 -13 0 -8 7 -14 15 -14
27 0 13 68 -38 192 -122 296 -149 369 -139 379 9 9 56 -65 87 -134 36 -84 184
-382 195 -394 4 -4 11 2 15 13 4 12 11 18 17 15 8 -5 9 -1 3 12 -4 10 -13 37
-20 59 -7 22 -35 101 -62 175 -55 150 -96 295 -90 313 6 18 57 -89 135 -283
96 -240 91 -231 116 -224 12 4 23 8 25 10 2 2 -23 108 -54 236 -32 128 -59
254 -59 280 -1 27 -5 48 -11 47 -5 0 -46 -11 -90 -24z m-229 -753 c-13 -14
-18 -14 -28 -3 -11 11 -11 13 0 7 7 -4 15 -1 18 8 3 9 11 13 16 10 6 -4 4 -13
-6 -22z m-216 -104 c0 -5 -7 -8 -15 -8 -17 0 -18 2 -9 25 5 13 8 14 15 3 5 -7
9 -16 9 -20z m-793 -470 c-3 -8 -6 -5 -6 6 -1 11 2 17 5 13 3 -3 4 -12 1 -19z
m613 -20 c0 -5 -9 -4 -20 2 -11 6 -20 12 -20 14 0 2 9 2 20 -1 11 -3 20 -9 20
-15z m-490 -44 c0 -2 -9 -4 -21 -4 -11 0 -18 4 -14 10 5 8 35 3 35 -6z"/>
<path d="M5345 8501 c-3 -5 -2 -12 3 -15 5 -3 9 1 9 9 0 17 -3 19 -12 6z"/>
<path d="M5118 8473 c7 -3 16 -2 19 1 4 3 -2 6 -13 5 -11 0 -14 -3 -6 -6z"/>
<path d="M5118 8453 c7 -3 16 -2 19 1 4 3 -2 6 -13 5 -11 0 -14 -3 -6 -6z"/>
<path d="M5755 8431 c-4 -7 -3 -16 2 -20 6 -3 13 -13 16 -21 5 -13 5 -13 6 0
0 8 -4 24 -8 34 -6 15 -10 16 -16 7z"/>
<path d="M5041 8344 c0 -11 3 -14 6 -6 3 7 2 16 -1 19 -3 4 -6 -2 -5 -13z"/>
<path d="M5285 7850 l8 -390 -354 -2 -354 -3 -3 -107 -3 -108 353 -2 353 -3
-1 -700 c-1 -385 2 -810 6 -944 8 -257 10 -266 55 -255 11 2 43 6 72 8 88 6
83 -19 94 443 6 225 9 642 7 928 l-3 520 353 3 352 2 0 110 0 110 -355 0 -355
0 0 390 0 390 -116 0 -116 0 7 -390z"/>
<path d="M4807 8201 c-4 -17 -3 -21 5 -13 5 5 8 16 6 23 -3 8 -7 3 -11 -10z"/>
<path d="M4390 8016 c0 -2 7 -9 15 -16 13 -11 14 -10 9 4 -5 14 -24 23 -24 12z"/>
<path d="M4325 7930 c-3 -5 -1 -10 4 -10 6 0 11 5 11 10 0 6 -2 10 -4 10 -3 0
-8 -4 -11 -10z"/>
<path d="M6594 7908 c-4 -7 -3 -10 1 -5 5 4 18 -1 29 -10 21 -18 21 -18 2 5
-22 26 -23 26 -32 10z"/>
<path d="M4166 7885 c-4 -10 1 -15 14 -15 13 0 18 5 14 15 -4 8 -10 15 -14 15
-4 0 -10 -7 -14 -15z"/>
<path d="M6449 7863 c-13 -16 -12 -17 4 -4 9 7 17 15 17 17 0 8 -8 3 -21 -13z"/>
<path d="M6565 7869 c-4 -6 -4 -13 -1 -16 3 -4 6 -1 6 6 0 8 6 11 16 7 8 -3
12 -2 9 4 -8 13 -22 13 -30 -1z"/>
<path d="M6735 7860 c4 -6 11 -8 16 -5 14 9 11 15 -7 15 -8 0 -12 -5 -9 -10z"/>
<path d="M6767 7839 c7 -7 15 -10 18 -7 3 3 -2 9 -12 12 -14 6 -15 5 -6 -5z"/>
<path d="M4155 7590 c-3 -5 -1 -10 4 -10 6 0 11 5 11 10 0 6 -2 10 -4 10 -3 0
-8 -4 -11 -10z"/>
<path d="M6808 7543 c7 -3 16 -2 19 1 4 3 -2 6 -13 5 -11 0 -14 -3 -6 -6z"/>
<path d="M2943 7514 c-11 -16 -47 -81 -80 -145 l-61 -117 55 -6 c30 -3 72 -15
94 -26 45 -23 94 -86 110 -140 l11 -38 37 25 c39 27 84 26 129 -3 28 -18 61
-69 69 -106 l5 -28 49 44 c26 24 62 46 79 49 25 6 30 11 30 36 0 18 6 31 18
36 14 5 15 4 5 -6 -30 -30 -10 -67 24 -46 6 4 13 3 15 -1 1 -5 17 -12 34 -15
28 -5 31 -4 28 19 -2 21 6 29 29 25 12 -2 8 6 -10 20 -11 10 -14 10 -9 2 4 -7
2 -13 -3 -13 -6 0 -11 8 -11 18 0 14 -8 17 -52 15 -42 -1 -47 0 -23 6 l30 8
-40 10 c-22 6 -59 14 -82 18 -39 6 -62 20 -50 31 2 2 35 0 73 -5 51 -8 70 -7
76 2 6 9 8 9 8 -2 0 -9 8 -11 25 -7 15 4 25 2 25 -4 0 -7 6 -6 18 1 13 8 17
20 14 45 -4 28 0 35 19 43 l24 10 -26 0 c-19 1 -26 6 -25 19 2 28 -55 27 -113
-2 -40 -21 -55 -24 -76 -16 -28 11 -105 83 -105 98 0 13 -35 22 -87 22 -60 0
-72 7 -83 51 -14 52 -66 91 -129 97 -44 4 -50 2 -68 -24z m657 -314 c0 -5 -4
-10 -10 -10 -5 0 -10 5 -10 10 0 6 5 10 10 10 6 0 10 -4 10 -10z m-124 -72 c4
-6 3 -8 -4 -4 -5 3 -13 0 -15 -6 -3 -8 -6 -6 -6 5 -1 19 14 23 25 5z m100 -39
c3 -6 -1 -18 -10 -27 -16 -16 -17 -16 -10 2 6 16 4 18 -9 13 -9 -3 -17 -3 -17
2 0 21 34 29 46 10z"/>
<path d="M6755 7531 c-3 -7 0 -8 10 -5 11 5 14 2 9 -10 -8 -20 9 -21 26 -1 8
9 8 15 2 15 -6 0 -17 3 -25 6 -8 3 -18 1 -22 -5z"/>
<path d="M6725 7510 c-3 -5 -1 -10 4 -10 6 0 11 5 11 10 0 6 -2 10 -4 10 -3 0
-8 -4 -11 -10z"/>
<path d="M3688 7419 c-4 -11 1 -20 18 -28 16 -7 24 -7 24 0 0 6 5 7 12 3 7 -5
8 -3 3 5 -4 7 -16 11 -26 8 -11 -3 -19 1 -21 12 -3 15 -4 15 -10 0z"/>
<path d="M3800 7370 c0 -5 5 -10 11 -10 5 0 7 5 4 10 -3 6 -8 10 -11 10 -2 0
-4 -4 -4 -10z"/>
<path d="M7176 7353 c-6 -14 -5 -15 5 -6 7 7 10 15 7 18 -3 3 -9 -2 -12 -12z"/>
<path d="M3875 7311 c-6 -11 13 -26 22 -17 4 3 1 6 -6 6 -7 0 -9 5 -6 10 3 6
4 10 1 10 -3 0 -7 -4 -11 -9z"/>
<path d="M7205 7301 c-3 -5 -2 -12 3 -15 5 -3 9 1 9 9 0 17 -3 19 -12 6z"/>
<path d="M7290 7264 c1 -5 10 -20 21 -33 16 -20 22 -22 32 -11 8 9 9 11 0 6
-6 -3 -21 6 -32 20 -12 15 -21 23 -21 18z"/>
<path d="M7342 7257 c-8 -10 -6 -13 9 -14 10 -1 19 5 19 13 0 17 -14 18 -28 1z"/>
<path d="M3676 7247 c3 -10 9 -15 12 -12 3 3 0 11 -7 18 -10 9 -11 8 -5 -6z"/>
<path d="M3630 7236 c7 -7 13 -7 20 0 6 6 3 10 -10 10 -13 0 -16 -4 -10 -10z"/>
<path d="M3637 7209 c7 -7 15 -10 18 -7 3 3 -2 9 -12 12 -14 6 -15 5 -6 -5z"/>
<path d="M3680 7199 c0 -5 5 -7 10 -4 6 3 10 8 10 11 0 2 -4 4 -10 4 -5 0 -10
-5 -10 -11z"/>
<path d="M7600 6745 c-7 -9 -8 -15 -2 -15 5 0 12 7 16 15 3 8 4 15 2 15 -2 0
-9 -7 -16 -15z"/>
<path d="M4396 6180 c35 -62 103 -134 145 -156 26 -13 52 -32 58 -41 6 -10 11
-13 11 -6 0 14 -40 46 -77 62 -15 6 -38 26 -51 44 -27 38 -99 119 -86 97z"/>
<path d="M6223 5997 c-23 -17 -47 -44 -53 -59 -7 -15 -20 -34 -31 -44 -21 -18
-25 -34 -9 -34 5 0 22 21 37 48 15 26 45 64 68 84 50 46 44 48 -12 5z"/>
<path d="M4649 5897 c8 -10 33 -32 55 -49 l41 -31 -35 34 c-19 19 -44 41 -55
49 -19 14 -19 14 -6 -3z"/>
<path d="M4780 5820 c0 -5 5 -10 12 -10 6 0 21 -8 32 -17 20 -17 20 -17 7 0
-19 24 -51 41 -51 27z"/>
<path d="M5978 5813 c-15 -18 -46 -73 -35 -63 9 8 57 80 53 80 -1 0 -10 -8
-18 -17z"/>
<path d="M2510 5731 c0 -6 4 -13 10 -16 6 -3 7 1 4 9 -7 18 -14 21 -14 7z"/>
<path d="M4870 5711 c5 -11 15 -23 21 -27 6 -3 3 5 -6 20 -20 30 -30 35 -15 7z"/>
<path d="M4858 5655 c19 -36 82 -101 82 -85 0 8 -21 35 -47 60 -25 25 -41 36
-35 25z"/>
<path d="M7680 5620 c20 -13 33 -13 25 0 -3 6 -14 10 -23 10 -15 0 -15 -2 -2
-10z"/>
<path d="M7727 5606 c-4 -10 -5 -21 -2 -24 9 -9 17 6 13 25 -3 17 -4 17 -11
-1z"/>
<path d="M4565 4940 c-4 -6 3 -10 14 -10 25 0 27 6 6 13 -8 4 -17 2 -20 -3z"/>
<path d="M4673 4933 c9 -2 23 -2 30 0 6 3 -1 5 -18 5 -16 0 -22 -2 -12 -5z"/>
<path d="M4478 4913 c6 -2 18 -2 25 0 6 3 1 5 -13 5 -14 0 -19 -2 -12 -5z"/>
<path d="M4558 4908 c9 -9 15 -9 24 0 9 9 7 12 -12 12 -19 0 -21 -3 -12 -12z"/>
<path d="M4660 4910 c0 -5 14 -10 32 -10 36 0 35 4 -4 14 -17 4 -28 2 -28 -4z"/>
<path d="M4621 4836 c10 -11 60 -14 86 -6 23 7 17 8 -31 9 -33 1 -57 -1 -55
-3z"/>
<path d="M5308 4823 c6 -2 18 -2 25 0 6 3 1 5 -13 5 -14 0 -19 -2 -12 -5z"/>
<path d="M4508 4813 c7 -3 16 -2 19 1 4 3 -2 6 -13 5 -11 0 -14 -3 -6 -6z"/>
<path d="M5818 4793 c7 -3 16 -2 19 1 4 3 -2 6 -13 5 -11 0 -14 -3 -6 -6z"/>
<path d="M4143 4773 c9 -2 23 -2 30 0 6 3 -1 5 -18 5 -16 0 -22 -2 -12 -5z"/>
<path d="M5300 4730 c0 -6 40 -10 100 -10 60 0 100 4 100 10 0 6 -40 10 -100
10 -60 0 -100 -4 -100 -10z"/>
<path d="M5300 4675 c0 -12 17 -15 91 -15 67 0 94 4 105 15 14 13 4 15 -90 15
-88 0 -106 -3 -106 -15z"/>
<path d="M5300 4630 c0 -6 40 -10 99 -10 56 0 103 4 106 10 4 6 -32 10 -99 10
-64 0 -106 -4 -106 -10z"/>
<path d="M5300 4575 l0 -25 106 0 c104 0 105 0 102 23 -3 21 -8 22 -105 25
l-103 3 0 -26z"/>
<path d="M3740 4501 c0 -27 3 -29 53 -36 96 -13 446 -2 476 14 8 5 58 6 112 4
89 -5 98 -4 107 14 11 19 7 20 -95 27 -58 3 -229 6 -380 6 l-273 0 0 -29z"/>
<path d="M5290 4500 c0 -19 7 -20 110 -20 103 0 110 1 110 20 0 19 -7 20 -110
20 -103 0 -110 -1 -110 -20z"/>
<path d="M7964 4438 l-19 -23 23 19 c12 11 22 21 22 23 0 8 -8 2 -26 -19z"/>
<path d="M3665 4423 c9 -16 26 -29 39 -29 19 -1 22 2 18 27 -4 26 -8 29 -39
29 l-34 0 16 -27z"/>
<path d="M3740 4431 c0 -10 12 -27 27 -37 l28 -17 -19 27 c-28 43 -12 42 35
-3 46 -43 68 -48 29 -6 -19 20 -20 25 -7 25 9 0 23 -10 31 -22 11 -15 16 -18
16 -8 0 9 10 3 24 -15 13 -16 27 -27 30 -24 4 3 -3 17 -14 32 -44 56 -180 92
-180 48z"/>
<path d="M5294 4441 c-2 -2 -4 -15 -4 -28 0 -23 1 -23 111 -23 l110 0 -3 28
-3 27 -103 0 c-57 0 -106 -2 -108 -4z"/>
<path d="M3620 4420 c0 -13 18 -22 24 -11 3 5 -1 11 -9 15 -8 3 -15 1 -15 -4z"/>
<path d="M3930 4398 c19 -18 41 -31 48 -30 6 2 12 -4 12 -13 0 -9 -4 -13 -10
-10 -5 3 -10 1 -10 -5 0 -7 7 -10 15 -6 8 3 19 -2 24 -12 17 -28 13 8 -3 41
l-15 27 87 1 c48 1 109 1 135 -1 28 -1 54 4 64 12 13 10 17 10 20 1 7 -19 89
-17 97 2 4 12 -6 15 -57 15 -34 0 -147 2 -252 5 l-190 6 35 -33z"/>
<path d="M4438 4413 c7 -3 16 -2 19 1 4 3 -2 6 -13 5 -11 0 -14 -3 -6 -6z"/>
<path d="M6315 4410 l-40 -7 53 -2 c33 0 51 3 47 9 -3 6 -9 9 -13 9 -4 -1 -25
-5 -47 -9z"/>
<path d="M7994 4378 l-19 -21 28 18 c28 18 33 25 19 25 -5 0 -17 -10 -28 -22z"/>
<path d="M4031 4363 c0 -10 9 -38 20 -63 11 -25 17 -34 15 -20 -3 14 -6 42 -6
63 0 26 -4 37 -15 37 -8 0 -15 -8 -14 -17z"/>
<path d="M4082 4358 c6 -18 58 -30 58 -13 0 14 -21 25 -47 25 -8 0 -13 -5 -11
-12z"/>
<path d="M6587 4363 c-4 -4 10 -15 30 -25 31 -15 62 -18 173 -17 l134 1 14
-41 c8 -23 18 -41 23 -41 12 0 11 7 -5 43 -8 18 -17 44 -20 60 l-6 27 -169 0
c-92 0 -171 -3 -174 -7z"/>
<path d="M4170 4341 c0 -15 38 -20 44 -5 4 10 -2 14 -19 14 -14 0 -25 -4 -25
-9z"/>
<path d="M5290 4325 l0 -25 110 0 110 0 0 25 0 25 -110 0 -110 0 0 -25z"/>
<path d="M7480 4330 c0 -5 5 -10 10 -10 6 0 10 5 10 10 0 6 -4 10 -10 10 -5 0
-10 -4 -10 -10z"/>
<path d="M7529 4303 c-13 -16 -12 -17 4 -4 16 13 21 21 13 21 -2 0 -10 -8 -17
-17z"/>
<path d="M6900 4283 c0 -22 17 -49 25 -41 8 8 -5 58 -16 58 -5 0 -9 -8 -9 -17z"/>
<path d="M6980 4283 c0 -38 13 -42 139 -44 105 -1 125 1 133 15 12 22 29 21
21 -1 -3 -10 3 -6 15 9 12 14 22 28 22 31 0 3 -74 6 -165 6 -151 1 -165 0
-165 -16z"/>
<path d="M6850 4271 c13 -25 33 -28 28 -4 -2 10 -11 19 -21 21 -16 3 -17 1 -7
-17z"/>
<path d="M5338 4252 c-85 -5 -51 -21 53 -24 91 -3 132 3 119 15 -7 7 -118 12
-172 9z"/>
<path d="M7215 4209 c-4 -6 -5 -12 -2 -15 2 -3 7 2 10 11 7 17 1 20 -8 4z"/>
<path d="M6866 4185 c-3 -9 0 -15 9 -15 9 0 12 6 9 15 -4 8 -7 15 -9 15 -2 0
-5 -7 -9 -15z"/>
<path d="M7170 4175 c-7 -9 -10 -18 -7 -21 3 -3 10 4 17 15 13 25 8 27 -10 6z"/>
<path d="M5290 4108 c0 -5 27 -8 60 -8 33 0 60 4 60 8 0 4 -27 8 -60 7 -33 0
-60 -3 -60 -7z"/>
<path d="M5459 4109 c-10 -6 -4 -9 19 -9 17 0 32 2 32 4 0 9 -39 13 -51 5z"/>
<path d="M5290 4031 c0 -9 207 -21 223 -13 4 2 5 8 2 13 -8 12 -225 12 -225 0z"/>
<path d="M5380 3769 c0 -5 5 -7 10 -4 6 3 10 8 10 11 0 2 -4 4 -10 4 -5 0 -10
-5 -10 -11z"/>
<path d="M2953 4615 c-7 -8 -9 -16 -4 -20 5 -3 12 1 15 7 3 7 3 2 0 -12 -3
-14 2 -34 10 -45 14 -19 15 -17 11 24 -5 51 -15 65 -32 46z"/>
<path d="M2320 4691 c0 -5 7 -11 15 -15 8 -3 15 -1 15 3 0 5 -7 11 -15 15 -8
3 -15 1 -15 -3z"/>
<path d="M2450 4606 c0 -2 7 -7 16 -10 8 -3 12 -2 9 4 -6 10 -25 14 -25 6z"/>
<path d="M3365 4023 c-25 -6 -44 -23 -24 -22 24 1 86 28 64 27 -11 0 -29 -2
-40 -5z"/>
<path d="M3505 3970 c-4 -6 7 -10 25 -10 18 0 29 4 25 10 -3 6 -15 10 -25 10
-10 0 -22 -4 -25 -10z"/>
<path d="M8130 3514 c-141 -38 -249 -155 -281 -305 -18 -83 -7 -215 24 -282
97 -212 337 -304 542 -209 91 43 155 106 196 194 33 70 34 77 34 193 0 114 -2
123 -32 187 -41 87 -101 151 -177 188 -102 50 -204 61 -306 34z"/>
<path d="M2550 3519 c-73 -14 -163 -64 -214 -119 -151 -161 -150 -437 1 -588
254 -254 666 -117 717 239 10 65 -10 173 -44 246 -79 171 -264 260 -460 222z"/>
<path d="M4220 3300 l0 -200 258 0 c229 0 261 2 298 19 107 49 125 228 31 319
-60 58 -82 62 -347 62 l-240 0 0 -200z"/>
<path d="M6248 3505 c-5 -5 -8 -180 -8 -391 0 -339 2 -383 16 -388 26 -10 210
-7 266 5 76 16 188 70 236 114 23 21 56 67 74 103 31 62 33 73 33 172 0 95 -3
111 -29 167 -45 98 -122 160 -246 197 -59 18 -330 34 -342 21z"/>
<path d="M2280 1933 c-25 -63 -45 -120 -45 -126 0 -8 29 -10 90 -8 49 1 92 4
94 7 2 2 -6 30 -18 61 -13 32 -33 84 -45 115 -12 31 -24 59 -26 61 -3 3 -25
-47 -50 -110z"/>
<path d="M3317 2182 l-28 -3 3 -102 3 -102 75 -3 c141 -6 190 20 190 101 0 97
-71 129 -243 109z"/>
<path d="M3294 1847 c-2 -7 -3 -62 -2 -123 l3 -109 100 -3 c131 -4 158 2 200
44 29 28 35 42 35 75 0 47 -28 92 -70 114 -39 20 -258 22 -266 2z"/>
<path d="M7247 2024 c-8 -16 -33 -73 -55 -126 l-40 -97 101 -3 c56 -2 104 -2
106 -1 2 2 -18 60 -46 130 l-51 127 -15 -30z"/>
<path d="M8370 2176 c-67 -18 -115 -51 -149 -103 -42 -63 -54 -114 -49 -203 7
-127 65 -208 179 -251 98 -38 194 -15 274 64 61 61 85 122 85 212 0 90 -24
151 -85 212 -75 75 -155 96 -255 69z"/>
</g>
</svg>
